<?xml version="1.0" encoding="UTF-8"?>
<svg id="Lag_1" data-name="Lag 1" xmlns="http://www.w3.org/2000/svg" viewBox="0 0 370.93 188.59">
  <defs>
    <style>
      .cls-1 {
        fill: #faf9f7;
        stroke-width: 0px;
      }
    </style>
  </defs>
  <path class="cls-1" d="M344.67,188.59c14.51,0,26.27-11.76,26.27-26.27s-11.76-26.27-26.27-26.27-26.27,11.76-26.27,26.27,11.76,26.27,26.27,26.27Z"/>
  <path class="cls-1" d="M130.46,179.03c-9.63,5.87-20.75,8.84-32.02,8.54-5.62.27-11.21-.91-16.24-3.43-3.77-1.96-6.65-5.28-8.07-9.28-10.63,8.6-23.92,13.22-37.59,13.09-9.6.59-19.13-1.92-27.19-7.15-3.14-2.51-5.63-5.75-7.25-9.44-1.62-3.69-2.31-7.71-2.03-11.72.29-6.33,2.25-12.46,5.67-17.79,3.42-5.33,8.19-9.66,13.82-12.56,16.71-9.6,35.11-15.9,54.2-18.56v-20.79c.35-6.09-1.25-12.13-4.55-17.26-1.99-2.04-4.42-3.6-7.11-4.55-2.69-.95-5.56-1.27-8.39-.93-3.75-.11-7.49.59-10.95,2.04-2.97,1.3-4.55,2.97-4.55,4.92.27,2.04,1.22,3.94,2.69,5.38,1.14,1.4,2.17,2.89,3.06,4.45.71,1.7,1.03,3.54.93,5.38.03,2.22-.41,4.42-1.27,6.46-.86,2.04-2.14,3.89-3.74,5.42-1.79,1.66-3.9,2.95-6.19,3.79-2.29.84-4.73,1.23-7.17,1.13-2.46.11-4.91-.26-7.22-1.11-2.31-.84-4.43-2.14-6.24-3.81-1.59-1.49-2.85-3.28-3.71-5.28-.86-2-1.31-4.15-1.3-6.32.14-5.85,2.38-11.45,6.31-15.78,5.13-5.8,11.64-10.21,18.93-12.81,10.77-3.55,22.07-5.22,33.41-4.92,12.09-1.08,24.11,2.62,33.5,10.3,3.82,4.43,6.72,9.57,8.52,15.13,1.8,5.56,2.47,11.43,1.97,17.26v58.75c-.35,4.35.25,8.72,1.76,12.81.54,1.04,1.37,1.9,2.39,2.48,1.02.58,2.19.84,3.36.77,2.04.02,4.07-.39,5.94-1.21l3.16-1.48,3.16,8.07ZM41.45,167.15c1.74,1.61,3.79,2.83,6.03,3.6,2.24.77,4.61,1.06,6.97.86,6.85-.59,13.35-3.31,18.56-7.8v-42.97c-9.95,2.21-19.3,6.59-27.38,12.81-2.78,2.42-4.99,5.42-6.48,8.79-1.49,3.37-2.23,7.02-2.15,10.7-.37,5.07,1.22,10.09,4.45,14.01Z"/>
  <path class="cls-1" d="M136.59,175.88c3.87.17,7.74-.21,11.51-1.11.99-.2,1.92-.63,2.71-1.26.79-.63,1.42-1.44,1.84-2.36.82-2.8,1.16-5.72,1.02-8.63V26.36c.28-2.86-.2-5.74-1.39-8.35-.83-.8-1.82-1.4-2.92-1.75-1.09-.35-2.26-.45-3.39-.29h-9.28V6.68L179.65,0h11.51v162.51c-.12,2.88.22,5.77,1.02,8.54.38.9.96,1.71,1.7,2.35.74.64,1.62,1.11,2.57,1.36,3.3.88,6.71,1.26,10.12,1.11v8.82h-69.98v-8.82Z"/>
  <path class="cls-1" d="M235.99,178.47c-6.82-8.4-10.14-19.1-9.28-29.89v-79.82h-16.06v-8.72c10.87-2.11,20.7-7.87,27.84-16.33,8.29-9.03,14.3-19.92,17.54-31.74h9.28v47.24h26.17v9.28h-26.17v78.24c-.37,6.38.84,12.76,3.53,18.56,1.14,1.98,2.82,3.59,4.84,4.66,2.02,1.07,4.3,1.54,6.57,1.38,2.58,0,5.13-.51,7.52-1.48,2.32-1.02,4.83-2.23,7.42-3.62l4.55,7.42-6.5,4.73c-4.16,2.83-8.73,4.99-13.55,6.4-5.53,1.71-11.29,2.55-17.08,2.51-4.81.46-9.66-.09-14.25-1.6-4.59-1.52-8.81-3.97-12.39-7.21Z"/>
</svg>