<?xml version="1.0" encoding="UTF-8"?>
<svg id="Lag_1" data-name="Lag 1" xmlns="http://www.w3.org/2000/svg" viewBox="0 0 2078.29 609.71">
  <defs>
    <style>
      .cls-1 {
        fill: #faf9f7;
      }

      .cls-1, .cls-2 {
        fill-rule: evenodd;
        stroke-width: 0px;
      }

      .cls-2 {
        fill: #2a4b9a;
      }
    </style>
  </defs>
  <path class="cls-1" d="M46.34,600.86H.01v8.85h256.65v-162.02h-7.81s-.31,93.4-31.05,124.09c-26.13,26.15-53.67,28.62-98.79,28.62v-298.07s31.15-2.23,46.22,12.84c23.84,23.84,26.16,54.32,26.16,96.39h8.22v-228.37h-8.22c0,42.07-2.32,72.55-26.16,96.39-15.07,15.07-46.22,12.85-46.22,12.85V9.31c45.12,0,66.59,2.46,92.71,28.6,30.73,30.73,31.05,124.12,31.05,124.12h7.81V.01H0v8.83h46.33v592.02h.01ZM729.13,9.13v591.28c45.12,0,72.66-2.48,98.79-28.62,30.74-30.7,31.05-124.09,31.05-124.09h7.81v162.02h-256.66v-8.85h46.34V8.83h-46.34V0h161.31v9.1l-42.29.03h0ZM1334.28,9.13v591.28c45.12,0,72.66-2.48,98.79-28.62,30.73-30.7,31.04-124.09,31.04-124.09h7.81v162.02h-256.63v-8.85h46.33V8.83h-46.33V0h161.32v9.1l-42.32.03h0ZM1867.98,600.86h-46.33v8.85h256.63v-162.02h-7.81s-.3,93.4-31.04,124.09c-26.15,26.15-53.68,28.62-98.79,28.62v-298.07s31.15-2.23,46.2,12.84c23.86,23.84,26.2,54.32,26.2,96.39h8.21v-228.37h-8.21c0,42.07-2.33,72.55-26.2,96.39-15.04,15.07-46.2,12.85-46.2,12.85V9.31c45.12,0,66.57,2.46,92.71,28.6,30.73,30.73,31.06,124.12,31.06,124.12h7.78V.01h-250.55v8.83h46.33v592.02h0Z"/>
  <path class="cls-2" d="M2042.09,584.2c.02-8.09,6.6-14.64,14.69-14.62,8.09.02,14.64,6.6,14.62,14.69-.02,8.06-6.55,14.6-14.62,14.62-8.11,0-14.69-6.58-14.69-14.69ZM2069.55,584.2c.03-7.03-5.65-12.76-12.68-12.79-.03,0-.05,0-.08,0-7.05-.06-12.81,5.61-12.87,12.66,0,.04,0,.09,0,.13,0,7.2,5.69,12.87,12.87,12.87,7.03.02,12.74-5.66,12.76-12.68,0-.06,0-.12,0-.18ZM2063.93,592.54h-2.36l-4.57-7.37h-3.75v7.37h-1.83v-16h6.99c4.25,0,5.68,1.6,5.68,4.23,0,3.14-2.18,4.33-5.02,4.41l4.85,7.37h0ZM2056.41,583.34c2.26,0,5.9.38,5.9-2.61,0-2.08-2.36-2.39-4.31-2.39h-4.73v4.99h3.14Z"/>
</svg>