<?xml version="1.0" encoding="UTF-8"?>
<svg id="Lag_1" data-name="Lag 1" xmlns="http://www.w3.org/2000/svg" viewBox="0 0 998.49 147.76">
  <defs>
    <style>
      .cls-1 {
        fill: #fdfdfd;
      }

      .cls-1, .cls-2, .cls-3, .cls-4, .cls-5, .cls-6, .cls-7, .cls-8, .cls-9, .cls-10, .cls-11, .cls-12, .cls-13, .cls-14 {
        stroke-width: 0px;
      }

      .cls-2 {
        fill: #faf9f7;
      }

      .cls-3 {
        fill: #faf9f7;
      }

      .cls-4 {
        fill: #faf9f7;
      }

      .cls-5 {
        fill: #faf9f7;
      }

      .cls-6 {
        fill: #faf9f7;
      }

      .cls-7 {
        fill: #faf9f7;
      }

      .cls-8 {
        fill: #faf9f7;
      }

      .cls-9 {
        fill: #faf9f7;
      }

      .cls-10 {
        fill: #faf9f7;
      }

      .cls-11 {
        fill: #2a4b9a;
      }

      .cls-12 {
        fill: #faf9f7;
      }

      .cls-13 {
        fill: #faf9f7;
      }

      .cls-14 {
        fill: #faf9f7;
      }
    </style>
  </defs>
  <path class="cls-14" d="M77.03,25.3c-2.81-9.48-9.45-14.64-18.94-16.59-4.16-.8-8.33-.65-12.5-.05-5.07,1.2-7.25,4.17-7.75,10.53-.93,9.31-.15,18.64-.41,27.96-.19,6.7.4,13.42-.33,20.11l.05,1.01c4.08.93,8.16.64,12.25.1,9.78-.09,12.68-3.25,14.82-15.68,2.02,3.31,1.02,7.14,1.19,10.73.18,3.94,0,7.89.05,11.84.05,3.94.19,7.87.29,11.81-.27.93-.75,1.52-1.85,1.12-1.26-1.05-.55-2.45-.59-3.67-.2-5.85-1.99-11.32-13.12-12.37-.46-.18-.89-.38-1.41-.41q-11.35-.57-11.35,10.7c0,13.48-.01,26.97.01,40.45,0,1.79-.3,3.62.4,5.37.5,6.37,2.68,9.34,7.75,10.53,6.28.66,12.56.67,18.84-.01,10.47-1.46,16.94-7.34,19.56-17.47,1.43-3.99-.92-8.36,1.27-12.26.44,0,.87-.01,1.31-.02.85.52.79,1.35.79,2.17,0,9.22-.04,18.44.03,27.66.02,2.14-.33,3.34-2.94,3.33-27.85-.11-55.71.03-83.56-.12-.3,0-.6-.27-.9-.41v-1.98c1.93-1.7,4.35-1.41,6.64-1.6,5.11-.41,8.23-3.11,9.61-7.96.87-3.05,1.2-6.15,1.2-9.31,0-31.4,0-62.8,0-94.19,0-2.32-.11-4.62-.6-6.9-1.56-7.37-4.21-9.77-11.71-10.44C3.31,9.13,1.47,9.1,0,7.78v-1.98c1.39-.83,2.92-.46,4.38-.46,23.73-.02,47.46.08,71.18-.11,4.23-.03,5.26,1.02,4.97,5.3-.54,7.71-.11,15.48-.19,23.23-.02,1.57.68,3.31-.69,4.7-3.44-1.55-.66-4.73-1.83-6.87-1.97-1.88-.33-4.21-.78-6.27Z"/>
  <path class="cls-11" d="M0,7.78c1.33.05,2.65.15,3.98.15,10.14.04,13.73,3.15,14.73,13.25.39,3.93.3,7.92.3,11.89.02,28.43.02,56.86,0,85.29,0,3.63.02,7.25-.78,10.85-1.72,7.7-4.81,10.26-12.75,10.33-1.83.02-3.65.1-5.48.15C0,95.72,0,51.75,0,7.78Z"/>
  <path class="cls-11" d="M79.65,38.45c1.05-10.17.22-20.37.44-30.55.07-3.16-2.52-1.97-4.02-1.98-15.41-.08-30.83-.04-46.24-.05C19.89,5.86,9.94,5.82,0,5.79v-.99c24.43,0,48.87,0,73.3-.01,2.29,0,4.67.43,6.65-1.33.44-.39,1.3-.65,1.85-.51,16.81,4.2,33.91.67,50.82,1.91,2.05.15,5.69-1.44,5.81,1.7.16,3.99-3.76,1.67-5.84,2.14-1.57.35-3.31.02-4.97-.01.35-2.12,2.09-1.7,2.54-1.77-12.96.47-26.89.44-39.98.02.58.12,2.51-.56,2.75,1.82q-12.05.08-12.05,12.05c0,4.41.05,8.82-.03,13.23-.03,1.54.64,3.35-1.22,4.42Z"/>
  <path class="cls-11" d="M0,141.67c27.26-.03,54.52-.19,81.77.05,4.63.04,5.51-1.34,5.27-5.5-.54-9.05.46-18.13-.46-27.18,1.96,1.02,1.27,2.87,1.28,4.41.06,7.42,0,14.84.05,22.27.01,1.75-.5,3.63,1.12,5.11,1.03.94.93,2.07-.07,3.02-.81.77-1.9.98-2.66.15-1.76-1.92-4-1.3-6.08-1.3-26.74-.04-53.47-.02-80.21-.02v-.99Z"/>
  <path class="cls-14" d="M737.92,12.47c.02-5.07,2.19-7.05,7.63-6.73,8.62.5,17.3.08,25.95.15,1.52.01,3.27-.72,4.94,1.13-2.32,1.62-4.8.84-7.03.87-9.94.12-11.97,1.93-12.13,11.91-.16,9.91-.07,19.83-.07,29.75,0,22.97-.02,45.95.02,68.92,0,2.96.22,5.94.55,8.89.58,5.1,1.82,10.24,7.51,11.72,6.36,1.65,12.63.9,17.51-4.26,3.87-4.09,5.61-9.28,7.19-14.52,11.62-38.54,23.25-77.08,34.88-115.62.38-1.24.8-2.47,1.52-4.68,5,15.97,9.72,31,14.43,46.05,7.68,24.57,15.34,49.15,23.01,73.73,1.33,4.26,2.82,8.46,5.27,12.23,2.23,3.42,5.13,6,9.24,7.1,8.88,2.37,14.39-.8,16.07-9.72.64-3.38.67-6.91.67-10.37.05-31.73.04-63.47.02-95.2,0-15.02-.56-15.55-15.52-15.89-1.21-.03-2.54.27-3.78-.88,1.45-1.84,3.23-1.16,4.72-1.17,9.49-.06,18.97.12,28.46-.08,3.07-.07,4.7.98,6.26,3.56,20.01,33.08,40.14,66.1,60.25,99.12.41.68.85,1.34,1.32,2.09,1.57-1.1.73-2.52.74-3.67.05-25.62.04-51.24.04-76.86,0-2.15.11-4.31-.06-6.44-.87-11.3-4.05-16.82-16.02-15.69-.95.09-2.01.28-3.43-1.34h40.41c-1.94,1.9-4.24,1.26-6.39,1.33-6.81.22-9.92,2.73-11.52,9.35-.95,3.9-.9,7.87-.9,11.83-.02,37.02-.02,74.05-.03,111.07,0,1.72,0,3.44,0,5.16-.42.1-.84.19-1.25.29-26.8-43.42-53.6-86.83-81.2-131.56,0,3.53,0,5.57,0,7.62,0,31.9-.03,63.8.03,95.7,0,3.95.15,7.96.79,11.85,1.19,7.3,4.87,10.18,12.26,10.34,1.94.04,3.97-.53,5.88.51-2.28,1.83-79.19,2.44-85.55.54,3.21-1.92,6.3-.91,9.18-1.03,6.64-.28,9.04-2.44,7.9-8.96-2.6-14.82-8.1-28.9-11.97-43.41-.52-1.96-2.06-1.78-3.57-1.78-8.82.02-17.64.08-26.46-.04-2.29-.03-3.18.85-3.77,2.92-3.42,12.07-6.99,24.09-10.45,36.15-.45,1.57-.62,3.25-.74,4.88-.53,7.3,1.98,10.03,9.32,10.18,2.26.05,4.53,0,6.79,0-.01.46-.02.92-.03,1.38h-86.37c4.4-2.33,9.83,0,13.86-3.45,4.17-3.56,4.67-8.53,4.92-13.54.56-1.43.32-2.93.32-4.4.01-32.44.01-64.88.01-97.32,0-2.13.24-4.31-1.12-6.19-.55-1.12-1.24-2.23-.48-3.53Z"/>
  <path class="cls-14" d="M92.94,8.75c-3.16-1.89-6.88.15-10.11-2.17h55.75c-3.69,2.79-7.82.05-10.95,2.1-5.38,1.19-7.75,4.95-7.89,12.52-.54,1.08-.41,2.25-.41,3.39,0,30.11,0,60.22,0,90.33,0,1.14-.13,2.31.41,3.4,1.01,21.22,19.34,28.18,37.7,21.08,9.9-3.83,14.23-12.06,15.43-22.15.57-1.08.4-2.25.4-3.4,0-29.99,0-59.98,0-89.97,0-1.14.18-2.31-.37-3.4l.06.06c-1.79-1.35-1.41-3.13-1-4.91-1.22-3.37-3.55-5.65-6.88-6.97-1.92-.79-3.95-.15-5.89-.44-1.61-.25-4.43,1.06-4.52-1.35-.1-2.52,2.73-1.5,4.3-1.52,7.45-.1,14.91-.05,22.37-.05,15.74,0,31.48-.11,47.22.1,3.02.04,6.19-2.09,9.11.35,5.56,1.33,11.35,1.82,16.56,4.43,9.41,4.71,15.04,12.33,17.51,22.39-.5,3.23,2.83,6.69-.6,9.74-4.35,15.36-14.63,24.42-31.49,28.28,13.48,4.63,20.82,14.08,26.13,25.44,2.56,1.89,2.13,4.85,2.72,7.45,2.23,10.25,3.85,20.67,8.1,30.37.94,2.14,1.85,4.63,4.85,4.89,1.77.69,3.53.72,5.3,0,2.96-.62,1.95-4.08,3.91-5.41,1.78-.15,2.8.36,2.08,2.37-5.93,10.13-16.22,9.6-23.93,7.89-2.46-.52-4.88-1.12-6.17-3.61-6.29-5.71-7.66-13.42-8.74-21.24-.18-1.28-.22-2.57-.32-3.86-.96-2.07.11-4.39-.83-6.46-.07-1.16-.13-2.31-.2-3.47-.86-1.7.07-3.66-.78-5.35-1.12-3.98-1.62-8.07-2.83-12.09-2.54-8.45-8.37-12.72-16.15-15.31q-10.61-1.66-10.61,8.51c0,14.05-.01,28.1.01,42.15,0,1.8-.31,3.64.4,5.4.51,6.39,2.69,9.35,7.76,10.54,2.71.86,5.5.22,8.25.41,1.59.11,3.15.16,1.93,2.43l.1-.08c-18.61.94-37.22,1.1-55.83-.08l.14.13c-1.42-2.38.38-2.27,1.87-2.39,2.76-.21,5.57.42,8.3-.41,5.11-1.34,6.36-5.63,7.65-9.89.76-1.22.45-2.57.45-3.87.02-34.3.02-68.61,0-102.91,0-1.31.2-2.65-.39-3.9-.73-4.8-3.16-8.17-8.04-9.5-3.11-.82-6.22-.7-9.34-.07-5.87,1.02-8.26,3.64-8.8,9.67-.76,1.75-.39,3.59-.39,5.39-.03,27.92-.01,55.84-.04,83.76,0,1.8.33,3.64-.34,5.4-1.16,9.32-2.57,18.47-10.68,24.93-4.29,3.42-9.42,4.47-14.44,5.98-5.65.54-11.3.58-16.94-.03-6.6-.33-12.81-2.23-18.18-5.91-8.68-5.96-12.6-14.8-13.87-24.96-1.03-2.36.21-4.97-.82-7.33.04-26.92.34-53.85-.07-80.76-.09-6.03-.05-13.3-7.96-16.06Z"/>
  <path class="cls-14" d="M737.92,12.47c.1.96.31,1.86,1.27,2.36.14,1.17-.3,2.12-1.08,2.95-12.92,42.46-25.83,84.92-38.76,127.38-.14.45-.45.85-.99,1.84-13.21-43.71-26.27-86.94-39.33-130.17-.21-.34-.49-.45-.78-.27-.47.29-.56.69-.25,1.16.04,33.7.08,67.39.14,101.09,0,3.46-.08,6.92.68,10.36,1.7,7.72,4.79,10.26,12.71,10.4,1.83.03,3.83-.6,5.76.75-3.41,1.63-35.85,1.82-40.67.16,2.44-1.55,4.74-.84,6.83-.91,6.71-.23,10.1-2.86,11.61-9.31.79-3.39.97-6.85.96-10.33-.02-32.54-.01-65.08-.01-97.63,0-.5,0-.99,0-1.49-.15-11.19-1.85-12.82-13.11-12.9-1.89-.01-3.92.67-5.7-.59.13-1.95,1.59-1.44,2.6-1.44,10.48-.03,20.96.11,31.43-.07,2.9-.05,3.53,1.3,4.2,3.62,9.81,34.07,19.72,68.12,29.6,102.18.21.72.46,1.42,1.09,3.37,4.9-15.99,9.37-30.72,13.93-45.42,5.91-19.04,11.91-38.05,17.86-57.07Z"/>
  <path class="cls-14" d="M493.41,118.01c-.24,6.53-3.19,12.36-4.81,18.53-.86,3.29-1.9,6.53-3.27,11.22-7.46-23.93-14.52-46.53-21.93-70.29-1.59,4.85-2.86,8.72-4.13,12.59-2.46.07-.79-2.11-1.62-2.93,1.31-3.99,2.71-7.95,3.88-11.98.3-1.02.1-2.3-.23-3.35-5.9-18.7-11.81-37.39-17.85-56.05-.96-2.98-2.19-6.07-5.78-7.07-1.19-.69-2.51-.3-3.77-.45-1.55-.18-2.45-.75-1.37-2.41l-.08.07c1.34-1.01,2.89-.55,4.34-.55,20.11-.03,40.22-.02,60.33-.02.83,0,1.66-.02,2.49.01,1.05.04,2.07.26,1.99,1.57-.08,1.35-1.23,1.28-2.22,1.36-1.81.14-3.66-.34-5.42.41-5.92.28-9.28,4.13-11.66,8.81-5.14,10.06-7.03,21.24-10.52,31.87-.44,1.34.45,3.18.92,4.73,6.21,20.5,12.47,40.97,18.64,61.48.38,1.26.66,1.68,1.83.94.58.43.66.94.22,1.52Z"/>
  <path class="cls-14" d="M422.96,8.65c-2.13-.07-3.64.57-3.53,3.05-.84,2.37-.73,4.75-.04,7.12.7,7.6,3.55,14.61,6.13,21.69,1.26,1.78,2.53,3.57,1.89,5.95,1.81,9.22,5.22,17.98,7.93,26.93,3.93,13,7.99,25.96,11.97,38.94.41,1.35.31,2.94,2.04,3.52.99-.2,1.52.03,1.12,1.15-1.3,10.31-5.43,19.78-8.74,30.74-3.21-9.9-6.11-18.56-8.83-27.28-4.28-13.69-8.4-27.43-12.79-41.08-.35-1.08.1-2.29-.73-3.2-1.31-1.77-2.56-3.57-1.9-5.96-4.2-13.54-8.27-27.11-12.67-40.58-1.37-4.19-2.41-8.57-4.92-12.35-2.74-4.12-5.92-7.58-11.05-8.65-1.59-.72-3.29-.27-4.93-.43-.87-.09-1.66-.31-1.73-1.35-.07-1.03.67-1.42,1.53-1.54.65-.1,1.33-.03,1.99-.03,13.31,0,26.62,0,39.92.01.95,0,2.04-.31,2.7.77.02.52.04,1.04.06,1.56-1.63,1.31-3.73.07-5.43,1Z"/>
  <path class="cls-14" d="M329.63,144.26c-11.1-2.51-19.95-8.81-27.07-17.21-6.94-8.19-12.2-17.54-15.03-28.03-1.26-1.81-2.6-3.6-1.71-6.01-1.51-2.1-.45-4.66-1.25-6.88-1.01-2.06.11-4.4-.86-6.47,0-3.01,0-6.02.01-9.03,1.06-2.34-.25-4.96.86-7.29,2.42-16.63,8.84-31.29,20.68-43.63,7.36-7.67,15.56-13.33,26.34-14.72.87.31,1.38.81,1,1.8-.2.26-.39.6-.68.7-13.29,5-18.81,16-22.13,28.55-2.33,8.79-3.87,17.75-3.79,26.88.12,14.16-.97,28.38,2.04,42.42,1.98,9.25,4.5,18.21,10.18,26.08,3.66,5.08,8.93,7.73,14.13,10.62.97,2.97-1.58,1.73-2.7,2.22Z"/>
  <path class="cls-14" d="M576.08,143.72c-10.03-1.49-17.88-6.92-24.65-13.95-28.55-29.65-28.43-81.03.25-110.51,6.44-6.62,13.82-11.86,23.21-13.61,1.15-.56,1.47.1,1.6,1.06-.28.81-.76,1.53-1.5,1.92-12.34,6.45-17.58,17.73-20.1,30.38-5.05,25.39-5.44,50.82,1.33,76.03,3.02,11.26,8.51,20.81,19.98,25.68.92.39,1.7,1.03,2.22,1.93-.17,1.69-1.14,1.64-2.35,1.06Z"/>
  <path class="cls-14" d="M593.26,5.58c5.79-.09,10.63,2.59,15.15,5.62,17.46,11.69,26.56,28.81,30.32,48.76,4.6,24.4-1.39,46.57-16.81,66.01-7.24,9.13-16.38,15.88-28.38,17.84-1.16.55-1.46-.12-1.55-1.08.4-.75,1-1.35,1.75-1.71,12-5.69,17.63-16.03,20.74-28.14,4.59-17.93,5.24-36.13,3.68-54.49-.87-10.24-2.31-20.32-6.1-29.94-3.37-8.53-8.19-15.84-16.97-19.8-.76-.34-1.39-.89-1.92-1.55-.28-.53-.24-1.03.1-1.52Z"/>
  <path class="cls-14" d="M347.58,5.59c12.33,1.53,20.96,9.01,28.62,17.86,5.4,6.24,8.95,13.64,12.47,21.03,2.66,2.05,3.09,4.87,2.78,7.95.73,3.64,1.46,7.28,2.19,10.92.76,1.69-.13,3.61.74,5.28,0,4.06,0,8.13,0,12.19-.87,1.68.03,3.6-.75,5.3-2.92,14.43-8.09,27.91-17.11,39.75-.9,2.69-2.26,4.97-5.25,5.8-6.17,4.36-11.91,9.48-19.68,11.03-1.24.69-2.1.54-2.31-1.04.43-1.15,1.36-1.85,2.34-2.48,7.91-5.1,12.81-12.47,15.48-21.24,5.61-18.39,7.06-37.22,5.4-56.33-.49-5.59-.79-11.2-1.84-16.73-2.96-15.46-7.65-29.91-23.17-37.78-.28-.52-.25-1.03.09-1.52Z"/>
  <path class="cls-5" d="M497.47,100.02c7.42-25.07,14.85-50.15,22.25-75.23.47-1.58.8-3.21,1.07-4.83,1.4-8.42-1.17-11.54-9.82-12.02-.79-.04-1.57-.24-2.6-.4,2.59-1.94,29.65-2.51,35.88-.96-.01,1.94-1.54,1.36-2.5,1.34-9.08-.17-14.84,4.54-17.64,12.63-3.67,10.6-6.82,21.37-10.12,32.09-4.96,16.1-9.86,32.23-14.78,48.34-1.05.52-1.32-.36-1.74-.96Z"/>
  <path class="cls-11" d="M237.68,5.76h-82.81c2.96,3.63,7.09.87,10.22,2.91-2.82.03-5.64-.02-8.46.12-2.18.11-3.28-1.38-4.42-2.74-.55-.65-.3-1.6.33-2.25,1.75-1.82,2.83.08,4.25.64,1.17.46,2.6.35,3.91.36,22.4.02,44.8.01,67.21,0,1.97,0,3.84.05,5.69-1.21,2.31-1.57,3.68-.35,4.08,2.17Z"/>
  <path class="cls-10" d="M738.11,17.79c-.46-1.28.5-2.05,1.08-2.96.98.9.82,2.08.82,3.23-.04,33.52-.07,67.03-.13,100.55,0,1.78.39,3.65-.68,5.31-.09-10.56-.24-21.11-.26-31.67-.04-23.12.01-46.23-.06-69.35,0-1.7.86-3.63-.78-5.12Z"/>
  <path class="cls-11" d="M202.84,18.25c1.28,2.13.88,4.51.88,6.77.05,32.21.05,64.42,0,96.63,0,2.44.34,4.98-.95,7.27.02-36.89.04-73.78.06-110.67Z"/>
  <path class="cls-11" d="M119.74,118.33c-.94-1.51-.63-3.2-.64-4.82-.03-29.16-.02-58.32,0-87.47,0-1.62-.3-3.31.63-4.83,0,32.37,0,64.75,0,97.12Z"/>
  <path class="cls-11" d="M172.91,20.49c1.1,1.46.73,3.18.73,4.78.03,28.89.03,57.78,0,86.68,0,1.79.27,3.65-.77,5.31.01-32.25.02-64.51.04-96.77Z"/>
  <path class="cls-11" d="M175.9,112.9c-.02-29.93-.06-59.85-.04-89.78,0-1.6-.25-3.31.8-4.77.03,30.44.07,60.89.1,91.33,0,1.15.12,2.33-.87,3.21Z"/>
  <path class="cls-11" d="M493.97,8.66c2.18-1.62,5.17.28,7.3-2.77-22.94,0-45.88,0-68.82,0,1.4-1.78,3.38-1.05,5.11-1.05,18.62-.05,37.24,0,55.86-.07,2.54-.01,5.31.89,7.53-1.45.74-.78,1.92-.36,2.63.49.89,1.07.6,1.99-.29,3.04-2.66,3.14-6.15,1.57-9.32,1.81Z"/>
  <path class="cls-4" d="M450.47,117.02c-.37-.38-.75-.77-1.12-1.15,1.97-9.81,5.61-19.14,8.3-28.74.54.98,1.08,1.96,1.62,2.93-2.49,9.13-4.99,18.25-8.8,26.96Z"/>
  <path class="cls-11" d="M37.85,128.27c-1.03-1.47-.81-3.19-.82-4.8-.07-16.35-.04-32.71-.14-49.06-.01-2.25.4-3.42,2.97-3.13,3.44.38,6.97-.4,10.34.88-.83.03-1.66.07-2.49.08q-9.76.09-9.77,9.56c-.02,15.49-.07,30.98-.1,46.47Z"/>
  <path class="cls-11" d="M222.61,128.27c-1.17-2.32-.87-4.83-.87-7.28-.04-15.16.1-30.32-.12-45.48-.05-3.51.91-4.79,4.38-4.24,2.26.35,4.66-.34,6.8.95q-10.09.11-10.09,10.2c-.02,15.29-.06,30.57-.09,45.86Z"/>
  <path class="cls-11" d="M428.33,6.09h-47.01c2.79,2.8,5.68,1.08,7.53,2.57-2.7-.22-5.63,1.13-7.96-1.49-.99-1.12-1.78-2.05-.64-3.37.88-1.03,2.07-1.22,3.04-.18,1.64,1.75,3.72,1.15,5.64,1.15,11.48.05,22.97,0,34.45.07,1.69.01,3.75-.84,4.96,1.26Z"/>
  <path class="cls-11" d="M184.81,141.48c18.61.03,37.22.05,55.83.08-1.04,1.54-2.65,1.09-4.08,1.09-15.91.03-31.82.03-47.73,0-1.42,0-3.05.47-4.02-1.17Z"/>
  <path class="cls-11" d="M37.1,67.27c-.03-14.6-.07-29.2-.05-43.79,0-1.44-.17-2.98.8-4.28.04,14.78.07,29.57.1,44.36,0,1.29.27,2.66-.84,3.71Z"/>
  <path class="cls-9" d="M497.47,100.02c.58.32,1.16.64,1.74.96-1.72,5.75-2.54,11.8-5.8,17.03-.07-.51-.15-1.01-.22-1.52.25-5.79,3.22-10.89,4.29-16.47Z"/>
  <path class="cls-11" d="M391.45,52.42c-.93-2.65-1.85-5.3-2.78-7.95,5.06,1.29,6.08,4.19,2.78,7.95Z"/>
  <path class="cls-12" d="M592.22,142.8c.44.34.88.67,1.32,1.01-5.83,1.64-11.64,1.67-17.45-.09.71-.3,1.43-.6,2.14-.89,4.66-1.38,9.33-1.34,14-.02Z"/>
  <path class="cls-11" d="M64.44,138.79c-6.28,1.12-12.56,1.26-18.84.01,6.28,0,12.56,0,18.84-.01Z"/>
  <path class="cls-11" d="M271.16,42.33c.2-3.25.4-6.5.6-9.74,1.48,1.98,1.15,4.56,2.45,6.76,1.18,2.01-.87,3.09-3.05,2.98Z"/>
  <path class="cls-14" d="M329.63,144.26c.98-.46,1.95-.93,2.93-1.39,3.16-1.92,6.52-.07,9.76-.53,1.3.34,3.01.11,3.13,2.14l.13.3c-4,.6-8,.52-12,.04-1.32-.19-2.63-.38-3.95-.57Z"/>
  <path class="cls-11" d="M133.84,143.77c5.65,0,11.29.02,16.94.03-5.65,1.38-11.3,1.43-16.94-.03Z"/>
  <path class="cls-11" d="M292.75,135.71c.21-1.57-.42-2.41-2.08-2.37.89-1.01,1.14-3.02,3.17-2.29.65.23,1.37,1.03,1.52,1.69.45,2-1.52,2.15-2.61,2.96Z"/>
  <path class="cls-11" d="M268.51,103.5l-2.72-7.45c6.83.35,2.03,4.89,2.72,7.45Z"/>
  <path class="cls-11" d="M262.65,139.98c2.06,1.2,4.11,2.41,6.17,3.61-3.45,1.14-6.64,1.85-6.17-3.61Z"/>
  <path class="cls-11" d="M371.27,131.67c1.75-1.93,3.5-3.87,5.25-5.8.34,3.79-.38,6.65-5.25,5.8Z"/>
  <path class="cls-6" d="M332.53,4.79c4.04-1.35,8.09-1.57,12.14-.05-1.29,1.56-3.29,1.25-4.95,1.85-1.02.21-2.05.21-3.07.02-1.47-.39-3-.65-4.12-1.82Z"/>
  <path class="cls-11" d="M285.81,93c1.01,1.88,1.49,3.91,1.71,6.01-2.48-1.47-6.44-2.52-1.71-6.01Z"/>
  <path class="cls-11" d="M427.41,46.46c-1.13-1.82-1.66-3.84-1.89-5.95,2.39,1.43,6.33,2.38,1.89,5.95Z"/>
  <path class="cls-11" d="M417.49,70.25c1.14,1.83,1.68,3.84,1.9,5.96-2.41-1.43-6.39-2.37-1.9-5.96Z"/>
  <path class="cls-11" d="M77.03,25.3c1.19,1.98,1.04,4.12.78,6.27-5.49-1.45-1.69-4.04-.78-6.27Z"/>
  <path class="cls-11" d="M63.92,88.2c.62-.37,1.23-.75,1.85-1.12,1.23.15,2.26.54,1.92,2.07-.22,1.01-.93,1.72-1.99,1.75-1.99.07-1.66-1.49-1.77-2.7Z"/>
  <path class="cls-2" d="M345.45,144.48c-.79-1.05-2.08-.47-3.06-.92,1.78-3.01,4.33-2.94,7.16-1.8.44.83,1.28.78,2.04.93-1.84,1.31-3.82,2.13-6.15,1.79Z"/>
  <path class="cls-11" d="M171.98,15.63c1.11,1.48,1.13,3.18,1,4.91-4.2-.86-4.2-2.57-1-4.91Z"/>
  <path class="cls-11" d="M195.13,138.81c-2.58,1.39-5.38.52-8.07.68-1.48.09-2.61.21-2.11,2.11-1.81-1.94-.93-2.81,1.28-2.87,2.96-.07,5.93.04,8.89.07Z"/>
  <path class="cls-11" d="M240.55,141.64c.58-2.45-1.18-2-2.59-2.12-2.53-.22-5.17.67-7.59-.71,2.95-.03,5.9-.15,8.84-.06,2.1.07,3.28.84,1.34,2.89Z"/>
  <path class="cls-11" d="M49.4,68.38c-4.09.91-8.18,1.65-12.25-.1,4.08.03,8.17.07,12.25.1Z"/>
  <path class="cls-11" d="M333.58,144.83c4-.01,8-.03,12-.04-4,1.38-8,1.33-12,.04Z"/>
  <path class="cls-11" d="M85.26,109.05c-1.19,4.01.64,8.32-1.27,12.26.58-4.07-1.71-8.43,1.27-12.26Z"/>
  <path class="cls-11" d="M45.59,8.66c4.17-1.2,8.34-1.09,12.5.05-4.17-.02-8.33-.03-12.5-.05Z"/>
  <path class="cls-3" d="M593.26,5.58c0,.37-.02.73-.03,1.1-3.49,1.38-6.84.84-10.1-.75-.25-.63-.1-1.14.47-1.52,2.4-.09,4.81-.32,7.18.25.95-.03,2.05-.42,2.48.93Z"/>
  <path class="cls-7" d="M590.78,4.66l-7.69.24c-1.4,1.06-2.75,1.1-4.03-.2,3.9-1.37,7.8-1.32,11.71-.04Z"/>
  <path class="cls-5" d="M579.07,4.7c1.34.07,2.69.13,4.03.2.05.24.08.47.09.71-2.09,1.86-4.36,2.51-6.96,1.05-.44-.34-.89-.67-1.33-1.01,1.21-1.08,2.72-.89,4.17-.96Z"/>
  <path class="cls-8" d="M339.56,5.62c1.51-1.42,3.41-.57,5.11-.88.99.2,2.28-.61,2.91.85,0,.37-.02.74-.02,1.1-2.9,1.4-5.54.86-8-1.07Z"/>
  <path class="cls-11" d="M185.46,8.67c3.12-1.1,6.24-1.18,9.34.07-3.11-.02-6.23-.05-9.34-.07Z"/>
  <path class="cls-11" d="M432.53,5.82c-.25,4.43,4.14.64,5.14,2.86-1.45.01-2.93.21-4.34,0-2.05-.32-2.44-1.38-.8-2.85Z"/>
  <path class="cls-11" d="M284.57,63.33c0,2.46.03,4.93-.86,7.29.23-2.44-.98-5.04.86-7.29Z"/>
  <path class="cls-11" d="M100.96,105.57c.84,2.38.83,4.86.82,7.33-1.78-2.28-.6-4.88-.82-7.33Z"/>
  <path class="cls-11" d="M419.39,18.83c-.93-2.38-1.25-4.76.04-7.12-.01,2.37-.02,4.75-.04,7.12Z"/>
  <path class="cls-11" d="M283.71,79.65c1.04,2.06.83,4.28.86,6.47-1.76-1.96-.63-4.31-.86-6.47Z"/>
  <path class="cls-11" d="M252.75,108.43c1.07,2.05.87,4.26.83,6.46-1.72-1.97-.62-4.3-.83-6.46Z"/>
  <path class="cls-11" d="M393.63,86.11c-.04-1.81-.07-3.61.75-5.29-.09,1.79.71,3.7-.75,5.29Z"/>
  <path class="cls-11" d="M394.38,68.62c-.81-1.68-.77-3.48-.74-5.28,1.44,1.6.65,3.5.74,5.28Z"/>
  <path class="cls-11" d="M251.77,99.61c.99,1.68.87,3.52.78,5.35-1.54-1.6-.69-3.55-.78-5.35Z"/>
  <path class="cls-13" d="M658,17.72c-.82-.89-1.44-2,.11-2.5.99-.32,1.02.82.92,1.62-.34.29-.69.59-1.03.88Z"/>
  <path class="cls-11" d="M422.96,8.65c1.63-1.28,3.69-.3,5.43-1-1.51,1.92-3.59.84-5.43,1Z"/>
  <path class="cls-11" d="M286.76,138.75c-1.76,1.53-3.53,1.34-5.3,0,1.77,0,3.53,0,5.3,0Z"/>
  <path class="cls-14" d="M332.53,4.79c1.28.5,2.85-.4,3.98.83-1.14,1.3-2.39,1.26-3.71.28-.41-.31-.81-.61-1.22-.92.3-.16.61-.22.95-.2Z"/>
  <path class="cls-11" d="M819.11,30.79c4.99,17.12,9.52,32.93,14.26,48.68.92,3.05.63,4.01-2.83,3.91-7.96-.23-15.92-.09-23.88-.05-1.89,0-3.26,0-2.46-2.63,4.89-16.16,9.68-32.36,14.91-49.91Z"/>
  <path class="cls-11" d="M221.75,42.78c0-7.42-.19-14.85.04-22.26.38-12,8.83-16.37,19.39-10.21,3.26,1.9,5.79,4.57,7.25,7.94,5.06,11.64,6.21,23.56,1.3,35.51-4.5,10.97-13.3,16.08-25.13,15.5-2.54-.12-2.97-1.01-2.94-3.23.11-7.75.04-15.5.04-23.25.01,0,.03,0,.04,0Z"/>
  <path class="cls-1" d="M470.78,44.66c-3.42-9.46-7.84-18.59-8.61-28.67-.49-6.39,2.32-8.84,8.65-8.15,4.28.47,6.55,2.83,6.87,7.09.3,4.03-.58,7.89-1.66,11.72-1.7,6.02-3.49,12.01-5.24,18.02Z"/>
  <path class="cls-11" d="M332.8,5.9c1.24-.09,2.47-.19,3.71-.28,1.02,0,2.04,0,3.05,0,2.67.36,5.33.71,8,1.07,9.67,3.04,15.17,10.23,19,18.99,5.19,11.83,6.72,24.42,7.42,37.14.97,17.7.44,35.32-4.57,52.48-3.27,11.2-8.47,21.18-19.85,26.47-2.39.6-4.78,1.2-7.16,1.8-3.28-.23-6.56-.46-9.84-.7-10.72-2.95-16.83-10.63-20.93-20.27-4.45-10.45-6.31-21.51-6.93-32.74-1.09-19.65-1.08-39.28,4.95-58.33,3.79-11.97,10.18-21.78,23.17-25.63Z"/>
  <path class="cls-11" d="M576.23,6.66c2.32-.35,4.64-.7,6.96-1.05,3.35.36,6.69.72,10.04,1.07,8.79,2.57,14.18,8.82,18.05,16.62,5.62,11.3,7.52,23.51,8.36,35.9,1.29,19.18,1.09,38.31-4.61,56.9-3.69,12.04-9.56,22.57-22.81,26.71-4.66.85-9.33.91-14,.02-11.68-3.41-17.76-12.17-21.84-22.72-3.23-8.38-4.92-17.15-5.62-26.07-1.56-19.84-1.7-39.66,3.6-59.06,3.36-12.31,8.91-23.18,21.86-28.31Z"/>
</svg>