<?xml version="1.0" encoding="UTF-8"?>
<svg xmlns="http://www.w3.org/2000/svg" viewBox="0 0 359.18 359.18">
  <defs>
    <style>
      .cls-1 {
        fill: #faf9f7;
      }

      .cls-1, .cls-2, .cls-3, .cls-4, .cls-5 {
        stroke-width: 0px;
      }

      .cls-2 {
        mix-blend-mode: multiply;
      }

      .cls-2, .cls-3 {
        fill: #2a4b9a;
      }

      .cls-6 {
        isolation: isolate;
      }

      .cls-4 {
        fill: #c7f9cc;
      }

      .cls-5 {
        fill: #57cc99;
      }
    </style>
  </defs>
  <g class="cls-6">
    <g id="Lag_1" data-name="Lag 1">
      <g>
        <circle class="cls-3" cx="179.59" cy="179.59" r="179.59" transform="translate(-30.62 322.13) rotate(-79.14)"/>
        <path class="cls-2" d="M102.82,245.07l83.76,113.93c87.03-3.34,158.18-68.57,170.64-152.95l-118.73-97.36L102.82,245.07Z"/>
        <g>
          <path class="cls-5" d="M217.37,105.88l-9.22-15.82c-3.67-6.3-10.49-10.22-17.79-10.22-3.62,0-7.2.97-10.35,2.8l-110.87,64.63c-4.75,2.77-8.14,7.22-9.54,12.54s-.65,10.85,2.12,15.61l38.19,65.53c2.54,4.36,6.6,7.53,11.27,9.1-3.31-2.59-5.86-6.16-7.1-10.36l-1.27-4.32,114.56-129.48Z"/>
          <path class="cls-4" d="M119.67,238.47v-75.84c0-11.35,9.23-20.58,20.57-20.58h46.57c.1-1.04.82-1.98,1.88-2.29l36.23-10.65c1.4-.4,2.88.4,3.3,1.8l3.28,11.14h20.56l-6.74-22.94c-2.56-8.7-10.67-14.78-19.73-14.78-1.96,0-3.92.28-5.81.84l-2.39.7-5.25,1.54-115.48,33.94c-5.27,1.55-9.63,5.06-12.26,9.89-2.63,4.82-3.23,10.38-1.68,15.66l20.12,68.45,1.27,4.32c1.23,4.21,3.79,7.77,7.1,10.36,3.54,2.77,7.95,4.42,12.63,4.42,1.06,0,2.12-.1,3.17-.27-4.47-3.78-7.32-9.41-7.32-15.71Z"/>
          <path class="cls-1" d="M268.58,142.05h-128.34c-11.34,0-20.57,9.23-20.57,20.58v75.84c0,6.3,2.85,11.93,7.32,15.71,3.59,3.03,8.21,4.86,13.26,4.86h128.34c11.34,0,20.58-9.23,20.58-20.57v-75.84c0-11.35-9.23-20.58-20.58-20.58Z"/>
          <rect class="cls-5" x="140.57" y="223.74" width="28.89" height="7.71"/>
          <rect class="cls-5" x="175.32" y="223.74" width="28.89" height="7.71"/>
          <rect class="cls-5" x="210.08" y="223.74" width="28.89" height="7.71"/>
          <rect class="cls-5" x="244.83" y="223.74" width="28.89" height="7.71"/>
          <rect class="cls-3" x="231.68" y="171.8" width="32.44" height="26.1"/>
          <rect class="cls-5" x="143.36" y="169.14" width="69.87" height="10.51"/>
          <rect class="cls-5" x="143.36" y="190.27" width="69.87" height="10.51"/>
        </g>
      </g>
    </g>
  </g>
</svg>