<?xml version="1.0" encoding="UTF-8"?>
<svg id="Lag_1" data-name="Lag 1" xmlns="http://www.w3.org/2000/svg" viewBox="0 0 669.14 669.16">
  <defs>
    <style>
      .cls-1 {
        fill: #101720;
        stroke-width: 0px;
      }
    </style>
  </defs>
  <path class="cls-1" d="M223.07,334.58c0-61.59,49.92-111.54,111.51-111.54s111.54,49.94,111.54,111.54-49.94,111.54-111.54,111.54-111.51-49.94-111.51-111.54M162.78,334.58c0,94.89,76.92,171.8,171.8,171.8s171.8-76.92,171.8-171.8-76.92-171.8-171.8-171.8-171.8,76.92-171.8,171.8M473.04,155.97c0,22.17,17.96,40.16,40.13,40.17,22.17,0,40.16-17.96,40.17-40.13,0-22.17-17.96-40.16-40.13-40.17h-.02c-22.16.01-40.13,17.97-40.15,40.13M199.41,606.92c-32.62-1.49-50.35-6.92-62.13-11.51-15.62-6.08-26.77-13.32-38.48-25.03-11.72-11.7-18.97-22.84-25.03-38.46-4.59-11.78-10.03-29.51-11.51-62.13-1.62-35.27-1.95-45.86-1.95-135.21s.35-99.91,1.95-135.21c1.49-32.62,6.96-50.32,11.51-62.13,6.08-15.62,13.32-26.77,25.03-38.48,11.7-11.72,22.84-18.97,38.48-25.03,11.78-4.59,29.51-10.03,62.13-11.51,35.27-1.62,45.86-1.95,135.17-1.95s99.91.35,135.21,1.95c32.62,1.49,50.32,6.96,62.13,11.51,15.62,6.05,26.77,13.32,38.48,25.03,11.72,11.7,18.95,22.86,25.03,38.48,4.59,11.78,10.03,29.51,11.51,62.13,1.62,35.3,1.95,45.86,1.95,135.21s-.32,99.91-1.95,135.21c-1.49,32.62-6.95,50.35-11.51,62.13-6.08,15.62-13.32,26.77-25.03,38.46s-22.86,18.95-38.48,25.03c-11.78,4.59-29.51,10.03-62.13,11.51-35.27,1.62-45.86,1.95-135.21,1.95s-99.91-.32-135.17-1.95M196.64,2.03c-35.62,1.62-59.96,7.27-81.21,15.54-22.01,8.54-40.65,20-59.27,38.59-18.62,18.59-30.05,37.26-38.59,59.27-8.27,21.27-13.92,45.59-15.54,81.21C.38,232.32,0,243.72,0,334.58s.38,102.27,2.03,137.94c1.62,35.62,7.27,59.94,15.54,81.21,8.54,22,19.97,40.69,38.59,59.27,18.62,18.58,37.26,30.03,59.27,38.59,21.3,8.27,45.59,13.92,81.21,15.54,35.69,1.62,47.08,2.03,137.94,2.03s102.27-.38,137.94-2.03c35.62-1.62,59.94-7.27,81.21-15.54,22-8.57,40.65-20,59.27-38.59,18.62-18.59,30.03-37.27,38.59-59.27,8.27-21.27,13.95-45.59,15.54-81.21,1.62-35.7,2-47.08,2-137.94s-.38-102.27-2-137.94c-1.62-35.62-7.27-59.96-15.54-81.21-8.57-22-20-40.65-38.59-59.27-18.59-18.62-37.27-30.05-59.24-38.59-21.3-8.27-45.62-13.95-81.21-15.54-35.67-1.62-47.08-2.03-137.94-2.03s-102.28.38-137.97,2.03"/>
</svg>