<?xml version="1.0" encoding="UTF-8"?>
<svg xmlns="http://www.w3.org/2000/svg" viewBox="0 0 359.18 359.18">
  <defs>
    <style>
      .cls-1 {
        fill: #faf9f7;
      }

      .cls-1, .cls-2, .cls-3, .cls-4, .cls-5, .cls-6, .cls-7 {
        stroke-width: 0px;
      }

      .cls-2 {
        mix-blend-mode: multiply;
      }

      .cls-2, .cls-5 {
        fill: #2a4b9a;
      }

      .cls-3 {
        fill: #d1d0cf;
      }

      .cls-4 {
        fill: #e8e7e6;
      }

      .cls-8 {
        isolation: isolate;
      }

      .cls-6 {
        fill: #c7f9cc;
      }

      .cls-7 {
        fill: #57cc99;
      }
    </style>
  </defs>
  <g class="cls-8">
    <g id="Lag_1" data-name="Lag 1">
      <g>
        <circle class="cls-5" cx="179.59" cy="179.59" r="179.59" transform="translate(-30.62 322.13) rotate(-79.14)"/>
        <path class="cls-2" d="M76.96,249.38l109.63,109.63c87.03-3.34,158.18-68.57,170.64-152.95l-75.18-75.18-205.09,118.5Z"/>
        <polygon class="cls-4" points="179.82 179.88 179.82 298.2 76.96 238.75 76.96 120.43 179.82 179.88"/>
        <polygon class="cls-3" points="282.23 120.44 282.23 238.76 179.82 298.2 179.82 179.88 282.23 120.44"/>
        <polygon class="cls-1" points="179.82 60.98 76.96 120.43 114.6 142.18 217.15 82.65 179.82 60.98"/>
        <polygon class="cls-6" points="229.81 90 217.15 82.65 114.6 142.18 127.29 149.52 138.93 156.24 241.42 96.75 229.81 90"/>
        <polygon class="cls-1" points="282.23 120.44 241.42 96.75 138.93 156.24 179.82 179.88 282.23 120.44"/>
        <polygon class="cls-5" points="166.5 276.26 158.93 271.81 158.99 251.41 154.9 249 163.19 239.63 171.43 258.73 166.55 255.86 166.5 276.26"/>
        <polygon class="cls-7" points="114.65 142.15 114.65 185.98 139.03 200.01 139.03 156.18 114.65 142.15"/>
        <g>
          <path class="cls-5" d="M260.89,196.1c-.79.45-1.43,1.46-1.43,2.25s.64,1.07,1.43.62,1.44-1.46,1.44-2.25-.64-1.07-1.44-.62Z"/>
          <path class="cls-5" d="M208.53,218.18c.54-.68,1.18-1.23,1.92-1.65,1.11-.63,1.94-.79,2.49-.46.56.33.88.97.99,1.93l2.21-2.18c-.29-1.1-.92-1.79-1.87-2.09-.96-.3-2.25.01-3.87.94-1.17.67-2.2,1.53-3.07,2.56-.87,1.03-1.55,2.18-2.02,3.43-.47,1.26-.71,2.56-.71,3.9s.24,2.38.71,3.1c.47.72,1.15,1.1,2.02,1.14.88.04,1.9-.28,3.07-.94,1.62-.92,2.91-2.07,3.87-3.47.96-1.39,1.58-2.8,1.87-4.23l-2.21.31c-.1,1.07-.43,2.1-.99,3.07-.56.97-1.39,1.77-2.49,2.4-.73.42-1.37.59-1.92.52-.54-.07-.96-.37-1.25-.9-.29-.53-.43-1.3-.43-2.29s.14-1.9.43-2.77c.29-.87.7-1.65,1.25-2.32Z"/>
          <path class="cls-5" d="M228.96,203.74l-1.54,2.59c-.24-.08-.49-.14-.77-.15-.88-.04-1.9.27-3.06.93s-2.2,1.54-3.09,2.59c-.89,1.05-1.58,2.21-2.09,3.49-.51,1.27-.76,2.58-.76,3.93s.25,2.38.76,3.08c.14.19.29.35.45.49l-1.44,2.43,1.21.34,1.33-2.22c.17.04.35.07.54.08.89.04,1.92-.27,3.09-.93s2.18-1.51,3.06-2.55c.88-1.05,1.58-2.21,2.08-3.49.5-1.28.76-2.6.76-3.96s-.25-2.39-.76-3.09c-.08-.11-.18-.2-.27-.3l1.73-2.89-1.22-.36ZM219.97,215.8c0-1.07.15-2.04.45-2.91.3-.87.73-1.63,1.28-2.29.55-.66,1.17-1.19,1.86-1.58.73-.42,1.36-.61,1.9-.58.22.01.41.07.59.16l-5.66,9.51c-.28-.52-.42-1.29-.42-2.33ZM227.22,211.67c0,1.08-.16,2.05-.47,2.92-.31.87-.74,1.64-1.29,2.29-.54.65-1.18,1.18-1.9,1.6s-1.31.57-1.86.54c-.13,0-.26-.03-.38-.07l5.58-9.35c.21.51.32,1.19.32,2.07Z"/>
          <polygon class="cls-5" points="232.41 215.12 234.68 213.84 234.68 196.06 232.41 197.37 232.41 215.12"/>
          <path class="cls-5" d="M252.48,190.55c-.91.52-1.66,1.18-2.28,1.99-.61.8-1.08,1.67-1.42,2.59-.21.57-.36,1.13-.48,1.67-.06-1.14-.36-1.9-.94-2.22-.65-.36-1.59-.18-2.85.54-.9.52-1.65,1.17-2.26,1.97-.61.8-1.08,1.66-1.42,2.59-.19.5-.33.99-.43,1.47v-3.4l-2.29,1.31v12.84l2.29-1.3v-7.32c0-.71.1-1.41.3-2.12.2-.7.51-1.35.94-1.93.42-.59.95-1.06,1.58-1.43.95-.54,1.66-.72,2.11-.52.46.2.69.79.69,1.77v8.35l2.31-1.31v-7.35c0-.71.1-1.42.31-2.12.2-.7.52-1.35.94-1.94.43-.59.97-1.07,1.62-1.45.96-.55,1.67-.72,2.13-.52.46.2.69.79.69,1.77v8.38l2.3-1.3v-8.96c0-1.38-.33-2.24-.98-2.61-.65-.36-1.61-.18-2.87.54Z"/>
        </g>
      </g>
    </g>
  </g>
</svg>