<?xml version="1.0" encoding="UTF-8"?>
<svg id="Isolationstilstand" xmlns="http://www.w3.org/2000/svg" viewBox="0 0 25.33 22.03">
  <defs>
    <style>
      .cls-1 {
        fill: #faf9f7;
      }

      .cls-1, .cls-2 {
        stroke-width: 0px;
      }

      .cls-2 {
        fill: #2a4b9a;
      }
    </style>
  </defs>
  <path class="cls-1" d="M2.03,22.03L.09,16.99c1.52-.17,2.72-.48,3.6-.94.88-.45,1.31-1.39,1.31-2.82v-1.11H0V0h10.85v12.29c0,2.85-.66,5.09-1.99,6.74-1.33,1.65-3.6,2.65-6.82,2.99ZM16.52,22.03l-1.95-5.04c1.53-.17,2.72-.48,3.6-.94.87-.45,1.31-1.39,1.31-2.82v-1.11h-5V0h10.85v12.29c0,2.85-.66,5.09-1.99,6.74-1.33,1.65-3.6,2.65-6.82,2.99Z"/>
  <path class="cls-2" d="M2.03,22.03L.09,16.99c1.52-.17,2.72-.48,3.6-.94.88-.45,1.31-1.39,1.31-2.82v-1.11H0V0h10.85v12.29c0,2.85-.66,5.09-1.99,6.74-1.33,1.65-3.6,2.65-6.82,2.99ZM16.52,22.03l-1.95-5.04c1.53-.17,2.72-.48,3.6-.94.87-.45,1.31-1.39,1.31-2.82v-1.11h-5V0h10.85v12.29c0,2.85-.66,5.09-1.99,6.74-1.33,1.65-3.6,2.65-6.82,2.99Z"/>
</svg>