<?xml version="1.0" encoding="UTF-8"?>
<svg id="Isolationstilstand" xmlns="http://www.w3.org/2000/svg" viewBox="0 0 25.33 22.03">
  <defs>
    <style>
      .cls-1 {
        fill: #faf9f7;
      }

      .cls-1, .cls-2 {
        stroke-width: 0px;
      }

      .cls-2 {
        fill: #2a4b9a;
      }
    </style>
  </defs>
  <path class="cls-1" d="M23.3,0l1.95,5.04c-1.52.17-2.72.48-3.6.94-.88.45-1.31,1.39-1.31,2.82v1.11h5v12.12h-10.85v-12.29c0-2.85.66-5.09,1.99-6.74,1.33-1.65,3.6-2.65,6.82-2.99ZM8.81,0l1.95,5.04c-1.53.17-2.72.48-3.6.94-.87.45-1.31,1.39-1.31,2.82v1.11h5v12.12H0v-12.29c0-2.85.66-5.09,1.99-6.74C3.32,1.34,5.59.34,8.81,0Z"/>
  <path class="cls-2" d="M23.3,0l1.95,5.04c-1.52.17-2.72.48-3.6.94-.88.45-1.31,1.39-1.31,2.82v1.11h5v12.12h-10.85v-12.29c0-2.85.66-5.09,1.99-6.74,1.33-1.65,3.6-2.65,6.82-2.99ZM8.81,0l1.95,5.04c-1.53.17-2.72.48-3.6.94-.87.45-1.31,1.39-1.31,2.82v1.11h5v12.12H0v-12.29c0-2.85.66-5.09,1.99-6.74C3.32,1.34,5.59.34,8.81,0Z"/>
</svg>