<?xml version="1.0" encoding="UTF-8"?>
<svg xmlns="http://www.w3.org/2000/svg" viewBox="0 0 359.18 359.18">
  <defs>
    <style>
      .cls-1 {
        fill: #faf9f7;
      }

      .cls-1, .cls-2, .cls-3, .cls-4 {
        stroke-width: 0px;
      }

      .cls-2 {
        mix-blend-mode: multiply;
      }

      .cls-2, .cls-3 {
        fill: #2a4b9a;
      }

      .cls-5 {
        isolation: isolate;
      }

      .cls-4 {
        fill: #c7f9cc;
      }
    </style>
  </defs>
  <g class="cls-5">
    <g id="Lag_1" data-name="Lag 1">
      <g>
        <circle class="cls-3" cx="179.59" cy="179.59" r="179.59" transform="translate(-30.62 322.13) rotate(-79.14)"/>
        <path class="cls-2" d="M90.7,263.12l95.88,95.88c87.03-3.34,158.18-68.57,170.64-152.95l-68.56-68.55-197.97,125.62Z"/>
        <path class="cls-4" d="M214.89,92.1c-38.35,3.89-66.91,31.95-63.79,62.68,2.99,29.51,34.1,50.76,70.53,48.96l-3.95,18.48c-.93,4.38,5.14,5.99,7.86,2.77l22.63-26.77c26.66-10.23,44.29-33.02,41.81-57.51-3.11-30.73-36.72-52.5-75.07-48.61ZM186.95,160.29c-4.35.44-8.24-2.73-8.68-7.08s2.73-8.24,7.09-8.68,8.23,2.73,8.68,7.08-2.73,8.23-7.08,8.68ZM220.49,156.89c-4.35.44-8.24-2.73-8.68-7.08-.44-4.35,2.73-8.24,7.09-8.68s8.23,2.73,8.68,7.08-2.73,8.23-7.08,8.68ZM254.99,153.4c-4.35.44-8.24-2.73-8.68-7.08-.44-4.35,2.73-8.24,7.09-8.68s8.23,2.73,8.68,7.08-2.73,8.23-7.08,8.68Z"/>
        <path class="cls-1" d="M116.26,157.23c-38.33,3.88-66.86,31.93-63.75,62.64,2.99,29.49,34.07,50.73,70.48,48.92l-3.95,18.47c-.93,4.38,5.13,5.98,7.85,2.76l22.61-26.75c26.64-10.23,44.26-33,41.78-57.47-3.11-30.71-36.7-52.46-75.02-48.58ZM88.35,225.37c-4.35.44-8.24-2.73-8.68-7.07s2.73-8.23,7.08-8.67,8.23,2.73,8.67,7.07-2.73,8.23-7.07,8.67ZM121.86,221.98c-4.35.44-8.24-2.73-8.68-7.07s2.73-8.23,7.08-8.67,8.23,2.73,8.67,7.07-2.73,8.23-7.07,8.67ZM156.34,218.48c-4.35.44-8.24-2.73-8.68-7.07s2.73-8.23,7.08-8.67,8.23,2.73,8.67,7.07-2.73,8.23-7.07,8.67Z"/>
      </g>
    </g>
  </g>
</svg>