<?xml version="1.0" encoding="UTF-8"?>
<svg xmlns="http://www.w3.org/2000/svg" viewBox="0 0 359.18 359.18">
  <defs>
    <style>
      .cls-1 {
        fill: #005128;
      }

      .cls-1, .cls-2, .cls-3, .cls-4, .cls-5 {
        stroke-width: 0px;
      }

      .cls-2 {
        fill: #00b67a;
      }

      .cls-3 {
        fill: #faf9f7;
      }

      .cls-4 {
        mix-blend-mode: multiply;
      }

      .cls-4, .cls-5 {
        fill: #2a4b9a;
      }

      .cls-6 {
        isolation: isolate;
      }
    </style>
  </defs>
  <g class="cls-6">
    <g id="Lag_1" data-name="Lag 1">
      <g>
        <circle class="cls-5" cx="179.59" cy="179.59" r="179.59" transform="translate(-30.62 322.13) rotate(-79.14)"/>
        <path class="cls-4" d="M106.69,252.48l79.89,106.53c87.03-3.34,158.18-68.57,170.64-152.95l-118.73-97.36L106.69,252.48Z"/>
        <g>
          <g>
            <g>
              <path class="cls-3" d="M71.69,175.61h60.99c2.66,0,4.82-2.16,4.82-4.82v-60.99c0-2.66-2.16-4.82-4.82-4.82h-60.99c-2.66,0-4.82,2.16-4.82,4.82v60.99c0,2.66,2.16,4.82,4.82,4.82ZM102.18,152.58l10.74-2.72,4.49,13.83-15.23-11.11ZM96.37,134.71l5.81-17.8,5.81,17.8h18.91l-15.23,11.04-9.42,6.77-15.3,11.04,5.81-17.8-15.3-11.04h18.91Z"/>
              <g>
                <path class="cls-2" d="M126.57,134.75h-18.69l-5.77-17.79-5.79,17.79-18.69-.02,15.13,11.01-5.79,17.78,15.13-10.99,15.12,10.99-5.77-17.78,15.12-10.99Z"/>
                <path class="cls-1" d="M112.75,149.77l-1.3-4.02-9.34,6.79,10.64-2.76Z"/>
              </g>
            </g>
            <g>
              <path class="cls-3" d="M149.1,175.61h60.99c2.66,0,4.82-2.16,4.82-4.82v-60.99c0-2.66-2.16-4.82-4.82-4.82h-60.99c-2.66,0-4.82,2.16-4.82,4.82v60.99c0,2.66,2.16,4.82,4.82,4.82ZM179.59,152.58l10.74-2.72,4.49,13.83-15.23-11.11ZM173.78,134.71l5.81-17.8,5.81,17.8h18.91l-15.23,11.04-9.42,6.77-15.3,11.04,5.81-17.8-15.3-11.04h18.91Z"/>
              <g>
                <path class="cls-2" d="M203.98,134.75h-18.69l-5.77-17.79-5.79,17.79-18.69-.02,15.13,11.01-5.79,17.78,15.13-10.99,15.12,10.99-5.77-17.78,15.12-10.99Z"/>
                <path class="cls-1" d="M190.16,149.77l-1.3-4.02-9.34,6.79,10.64-2.76Z"/>
              </g>
            </g>
            <g>
              <path class="cls-3" d="M226.51,175.61h60.99c2.66,0,4.82-2.16,4.82-4.82v-60.99c0-2.66-2.16-4.82-4.82-4.82h-60.99c-2.66,0-4.82,2.16-4.82,4.82v60.99c0,2.66,2.16,4.82,4.82,4.82ZM257,152.58l10.74-2.72,4.49,13.83-15.23-11.11ZM251.19,134.71l5.81-17.8,5.81,17.8h18.91l-15.23,11.04-9.42,6.77-15.3,11.04,5.81-17.8-15.3-11.04h18.91Z"/>
              <g>
                <path class="cls-2" d="M281.39,134.75h-18.69l-5.77-17.79-5.79,17.79-18.69-.02,15.13,11.01-5.79,17.78,15.13-10.99,15.12,10.99-5.77-17.78,15.12-10.99Z"/>
                <path class="cls-1" d="M267.57,149.77l-1.3-4.02-9.34,6.79,10.64-2.76Z"/>
              </g>
            </g>
          </g>
          <g>
            <g>
              <path class="cls-3" d="M110.39,254.2h60.99c2.66,0,4.82-2.16,4.82-4.82v-60.99c0-2.66-2.16-4.82-4.82-4.82h-60.99c-2.66,0-4.82,2.16-4.82,4.82v60.99c0,2.66,2.16,4.82,4.82,4.82ZM140.89,231.17l10.74-2.72,4.49,13.83-15.23-11.11ZM135.08,213.29l5.81-17.8,5.81,17.8h18.91l-15.23,11.04-9.42,6.77-15.3,11.04,5.81-17.8-15.3-11.04h18.91Z"/>
              <g>
                <path class="cls-2" d="M165.27,213.34h-18.69l-5.77-17.79-5.79,17.79-18.69-.02,15.13,11.01-5.79,17.78,15.13-10.99,15.12,10.99-5.77-17.78,15.12-10.99Z"/>
                <path class="cls-1" d="M151.46,228.35l-1.3-4.02-9.34,6.79,10.64-2.76Z"/>
              </g>
            </g>
            <g>
              <path class="cls-3" d="M187.8,254.2h60.99c2.66,0,4.82-2.16,4.82-4.82v-60.99c0-2.66-2.16-4.82-4.82-4.82h-60.99c-2.66,0-4.82,2.16-4.82,4.82v60.99c0,2.66,2.16,4.82,4.82,4.82ZM218.3,231.17l10.74-2.72,4.49,13.83-15.23-11.11ZM212.48,213.29l5.81-17.8,5.81,17.8h18.91l-15.23,11.04-9.42,6.77-15.3,11.04,5.81-17.8-15.3-11.04h18.91Z"/>
              <g>
                <path class="cls-2" d="M242.68,213.34h-18.69l-5.77-17.79-5.79,17.79-18.69-.02,15.13,11.01-5.79,17.78,15.13-10.99,15.12,10.99-5.77-17.78,15.12-10.99Z"/>
                <path class="cls-1" d="M228.87,228.35l-1.3-4.02-9.34,6.79,10.64-2.76Z"/>
              </g>
            </g>
          </g>
        </g>
      </g>
    </g>
  </g>
</svg>