<?xml version="1.0" encoding="UTF-8"?>
<svg id="Lag_1" data-name="Lag 1" xmlns="http://www.w3.org/2000/svg" viewBox="0 0 349.57 333.17">
  <defs>
    <style>
      .cls-1 {
        fill: #2a4b9a;
        stroke-width: 0px;
      }
    </style>
  </defs>
  <path class="cls-1" d="M343.57,122.75h-120.21c-2.6,0-4.9-1.67-5.7-4.14L180.53,4.14c-1.79-5.52-9.6-5.52-11.39,0l-37.25,114.47c-.8,2.47-3.1,4.14-5.7,4.14l-120.18-.11c-5.8,0-8.22,7.42-3.53,10.83l97.36,70.81c2.1,1.53,2.98,4.23,2.17,6.7l-37.24,114.32c-1.8,5.52,4.52,10.11,9.21,6.7l97.35-70.69c2.1-1.52,4.94-1.52,7.04,0l97.22,70.69c4.69,3.41,11.01-1.18,9.22-6.69l-37.13-114.33c-.8-2.47.08-5.17,2.17-6.69l97.24-70.7c4.69-3.41,2.28-10.83-3.52-10.83Z"/>
  <path class="cls-1" d="M254.32,231.58l-5.45-16.89c-1.25-3.88-5.92-5.4-9.22-3.01l-39.22,28.48c-5.35,3.89-1.38,12.3,5.02,10.64l44.67-11.59c3.33-.87,5.25-4.36,4.2-7.64Z"/>
</svg>