<?xml version="1.0" encoding="UTF-8"?>
<svg xmlns="http://www.w3.org/2000/svg" viewBox="0 0 359.18 359.18">
  <defs>
    <style>
      .cls-1 {
        fill: #faf9f7;
      }

      .cls-1, .cls-2, .cls-3, .cls-4, .cls-5 {
        stroke-width: 0px;
      }

      .cls-2 {
        mix-blend-mode: multiply;
      }

      .cls-2, .cls-3 {
        fill: #2a4b9a;
      }

      .cls-6 {
        isolation: isolate;
      }

      .cls-4 {
        fill: #c7f9cc;
      }

      .cls-5 {
        fill: #57cc99;
      }
    </style>
  </defs>
  <g class="cls-6">
    <g id="Lag_1" data-name="Lag 1">
      <g>
        <circle class="cls-3" cx="179.59" cy="179.59" r="179.59" transform="translate(-30.62 322.13) rotate(-79.14)"/>
        <path class="cls-2" d="M106.34,264.9l80.31,94.08c87.03-3.34,158.18-68.57,170.64-152.95l-90.01-80.2-160.95,139.07Z"/>
        <g>
          <path class="cls-4" d="M192.47,94.8c-.12,0-.25-.01-.37-.03-1.16-.2-1.94-1.31-1.73-2.47l2.55-14.58c.2-1.16,1.3-1.94,2.47-1.73,1.16.2,1.94,1.31,1.73,2.47l-2.55,14.58c-.18,1.04-1.08,1.77-2.1,1.77Z"/>
          <g>
            <path class="cls-4" d="M181.19,92.83c-.93,0-1.79-.62-2.05-1.56l-4.16-14.8c-.32-1.14.34-2.31,1.47-2.63,1.14-.32,2.31.34,2.63,1.48l4.16,14.8c.32,1.14-.34,2.31-1.48,2.63-.19.05-.39.08-.58.08Z"/>
            <path class="cls-4" d="M203.73,96.77c-.43,0-.86-.13-1.24-.4-.96-.69-1.18-2.02-.5-2.98l8.94-12.51c.68-.96,2.02-1.18,2.98-.5.96.69,1.18,2.02.49,2.98l-8.94,12.51c-.42.58-1.07.89-1.74.89Z"/>
          </g>
          <g>
            <g>
              <path class="cls-4" d="M263.92,114.2l26.85,89.08c1.7,5.62-1.52,11.6-7.14,13.3l-167.28,50.43c-5.62,1.69-11.6-1.52-13.3-7.14l-26.85-89.08c-1.69-5.62,1.52-11.61,7.14-13.3l167.28-50.43c5.62-1.69,11.6,1.52,13.3,7.14Z"/>
              <path class="cls-1" d="M263.92,114.2l5.42,17.98-187.71,56.59-5.42-17.98c-1.69-5.62,1.52-11.61,7.14-13.3l167.28-50.43c5.62-1.69,11.6,1.52,13.3,7.14Z"/>
              <path class="cls-1" d="M289.65,199.56l1.12,3.72c1.7,5.62-1.52,11.6-7.14,13.3l-167.28,50.43c-5.62,1.69-11.6-1.52-13.3-7.14l-1.12-3.72,187.71-56.59Z"/>
              <path class="cls-1" d="M205.99,122.5c1.51,2.51.45,5.26-2.36,6.11l-69.23,20.87c-2.81.85-5.21-.86-5.34-3.79l-.91-20.97c-.13-2.93,2.07-6.02,4.88-6.87l54.27-16.36c2.81-.85,6.35.52,7.86,3.03l10.83,17.98Z"/>
              <g>
                <path class="cls-3" d="M175.84,114.89c2.06-.62,4.25.56,4.87,2.62l3.1,10.27c.62,2.06-.56,4.25-2.62,4.87l-24.58,7.41c-2.06.62-4.25-.55-4.87-2.61l-3.1-10.27c-.62-2.06.56-4.25,2.62-4.87l24.58-7.41Z"/>
                <path class="cls-2" d="M182.91,124.81l.9,2.97c.62,2.06-.56,4.25-2.62,4.87l-24.58,7.41c-2.06.62-4.25-.55-4.87-2.61l-.89-2.97c.62,2.06,2.81,3.24,4.87,2.61l24.58-7.41c2.06-.62,3.23-2.81,2.61-4.87Z"/>
                <path class="cls-5" d="M181.38,133.27l-24.58,7.41c-2.41.73-4.96-.64-5.68-3.05l-3.09-10.27c-.73-2.41.64-4.96,3.05-5.68l24.58-7.41c2.41-.73,4.96.64,5.68,3.05l3.09,10.27c.73,2.41-.64,4.96-3.05,5.68ZM151.45,122.93c-1.72.52-2.7,2.34-2.18,4.06l3.1,10.27c.52,1.72,2.34,2.7,4.06,2.18l24.58-7.41c1.72-.52,2.7-2.34,2.18-4.06l-3.09-10.27c-.52-1.72-2.34-2.7-4.06-2.18l-24.58,7.41Z"/>
              </g>
              <rect class="cls-5" x="91.45" y="185.04" width="15.52" height="70.37" transform="translate(-59.34 38.01) rotate(-16.78)"/>
              <rect class="cls-5" x="264.31" y="132.93" width="15.52" height="70.37" transform="translate(-36.95 85.69) rotate(-16.78)"/>
              <path class="cls-5" d="M107.01,147.63l.75,2.5-13.75,4.15-.75-2.5c-.17-.56.15-1.16.71-1.33l11.71-3.53c.56-.17,1.16.15,1.33.71Z"/>
              <path class="cls-5" d="M238.54,105.05l1.56,5.19-11.24,3.39-1.56-5.19c-.15-.5.14-1.05.64-1.2l9.4-2.83c.51-.15,1.05.14,1.2.64Z"/>
            </g>
            <g>
              <path class="cls-3" d="M221.32,175.63c6.3,20.89-5.53,42.94-26.43,49.24-20.9,6.3-42.94-5.53-49.24-26.43-6.3-20.89,5.53-42.94,26.43-49.24,20.89-6.3,42.94,5.53,49.24,26.43Z"/>
              <path class="cls-4" d="M210.1,179.02c4.43,14.69-3.89,30.2-18.59,34.63-14.69,4.43-30.2-3.89-34.63-18.59-4.43-14.7,3.89-30.2,18.59-34.63,14.7-4.43,30.2,3.89,34.63,18.59Z"/>
              <path class="cls-5" d="M200.18,182.01c2.78,9.22-2.44,18.95-11.66,21.73-9.22,2.78-18.95-2.44-21.73-11.66-2.78-9.22,2.44-18.95,11.66-21.73,9.22-2.78,18.95,2.44,21.73,11.66Z"/>
              <path class="cls-4" d="M194.36,183.76c1.81,6.01-1.59,12.35-7.6,14.16-6.01,1.81-12.34-1.59-14.16-7.6-1.81-6.01,1.59-12.34,7.6-14.16,6.01-1.81,12.34,1.59,14.16,7.6Z"/>
              <path class="cls-5" d="M188.49,185.53c.83,2.76-.73,5.68-3.49,6.51-2.76.83-5.68-.73-6.51-3.49-.83-2.76.73-5.68,3.49-6.51,2.76-.83,5.68.73,6.51,3.49Z"/>
              <path class="cls-1" d="M193.55,178.55c.96,3.19-.85,6.56-4.03,7.52-3.19.96-6.55-.85-7.52-4.04-.96-3.19.84-6.56,4.03-7.52,3.19-.96,6.56.85,7.52,4.04Z"/>
              <path class="cls-1" d="M210.1,179.02c.34,1.12.6,2.26.79,3.39-5.58-12.64-19.85-19.42-33.42-15.33-13.57,4.09-21.71,17.62-19.37,31.24-.47-1.04-.88-2.13-1.21-3.26-4.43-14.69,3.89-30.2,18.58-34.63,14.7-4.43,30.21,3.89,34.64,18.58Z"/>
              <path class="cls-4" d="M193.36,219.8c-18.07,5.45-37.19-4.82-42.64-22.89-5.45-18.07,4.82-37.2,22.89-42.64,18.07-5.45,37.19,4.82,42.64,22.89,5.45,18.06-4.82,37.2-22.89,42.64ZM173.92,155.29c-17.5,5.28-27.45,23.81-22.18,41.31,5.28,17.5,23.81,27.45,41.31,22.17,17.5-5.28,27.45-23.81,22.18-41.31-5.28-17.5-23.81-27.45-41.31-22.17Z"/>
            </g>
          </g>
        </g>
      </g>
    </g>
  </g>
</svg>