<?xml version="1.0" encoding="UTF-8"?>
<svg xmlns="http://www.w3.org/2000/svg" viewBox="0 0 359.18 359.18">
  <defs>
    <style>
      .cls-1 {
        opacity: .49;
      }

      .cls-1, .cls-2, .cls-3, .cls-4, .cls-5, .cls-6, .cls-7 {
        stroke-width: 0px;
      }

      .cls-1, .cls-7 {
        fill: #57cc99;
      }

      .cls-2, .cls-4 {
        fill: #00b67a;
      }

      .cls-3 {
        mix-blend-mode: multiply;
      }

      .cls-3, .cls-5 {
        fill: #2a4b9a;
      }

      .cls-4 {
        opacity: .53;
      }

      .cls-8 {
        isolation: isolate;
      }

      .cls-6 {
        fill: #c7f9cc;
      }
    </style>
  </defs>
  <g class="cls-8">
    <g id="Lag_1" data-name="Lag 1">
      <g>
        <circle class="cls-5" cx="179.59" cy="179.59" r="179.59" transform="translate(-30.62 322.13) rotate(-79.14)"/>
        <path class="cls-3" d="M72.81,243.81l113.84,115.17c87.03-3.34,158.18-68.57,170.64-152.95l-88.23-90.66L72.81,243.81Z"/>
        <g>
          <g>
            <rect class="cls-6" x="90.46" y="132.02" width="188.89" height="93.61" transform="translate(-29.86 37.25) rotate(-10.65)"/>
            <rect class="cls-7" x="96.98" y="147.86" width="7.38" height="93.61" transform="translate(-34.24 21.96) rotate(-10.65)"/>
            <rect class="cls-1" x="108.25" y="142.95" width="107.81" height="72.97" transform="translate(-30.37 33.06) rotate(-10.65)"/>
            <g>
              <path class="cls-2" d="M229.58,150.29c-.26-1.37-.26-2.59,0-3.65.25-1.06.84-2.29,1.75-3.69.89-1.4,1.47-2.56,1.75-3.48.27-.92.32-1.84.15-2.76-.15-.82-.39-1.37-.72-1.64-.33-.27-.74-.36-1.26-.26-1.04.2-1.45.93-1.21,2.19l.39,2.06-2.85.54-.35-1.87c-.29-1.55-.13-2.82.48-3.8.61-.98,1.65-1.6,3.11-1.88s2.66-.07,3.58.62c.92.69,1.53,1.81,1.83,3.36.22,1.17.16,2.37-.19,3.59-.35,1.22-1.07,2.68-2.17,4.39-.72,1.12-1.18,2.01-1.37,2.66-.2.65-.24,1.32-.11,2l.08.41,5.73-1.08.52,2.74-8.72,1.64-.39-2.09Z"/>
              <path class="cls-2" d="M241.77,149.13c-.94-.69-1.56-1.81-1.85-3.35l-1.9-10.1c-.29-1.54-.12-2.8.51-3.79.63-.99,1.68-1.62,3.17-1.9s2.69-.07,3.64.62c.94.69,1.56,1.81,1.85,3.35l1.9,10.1c.29,1.54.12,2.8-.51,3.79s-1.68,1.62-3.16,1.9-2.7.07-3.64-.62ZM246.1,144.82l-1.97-10.48c-.24-1.26-.88-1.79-1.92-1.6s-1.45.93-1.21,2.19l1.97,10.48c.24,1.26.88,1.8,1.92,1.6s1.44-.93,1.21-2.19Z"/>
              <path class="cls-2" d="M252.75,147.07c-.94-.69-1.56-1.81-1.85-3.35l-1.9-10.1c-.29-1.54-.12-2.8.51-3.79.63-.99,1.68-1.62,3.17-1.9s2.69-.07,3.64.62c.94.69,1.56,1.81,1.85,3.35l1.9,10.1c.29,1.54.12,2.8-.51,3.79-.63.99-1.68,1.62-3.16,1.9s-2.7.07-3.64-.62ZM257.08,142.76l-1.97-10.48c-.24-1.26-.88-1.79-1.92-1.6s-1.45.93-1.21,2.19l1.97,10.48c.24,1.26.88,1.8,1.92,1.6s1.44-.93,1.21-2.19Z"/>
            </g>
            <rect class="cls-5" x="199.37" y="190.82" width="5.14" height="11.51" transform="translate(-32.85 40.71) rotate(-10.65)"/>
            <rect class="cls-5" x="202.24" y="206.07" width="5.14" height="11.51" transform="translate(-35.62 41.5) rotate(-10.65)"/>
            <rect class="cls-5" x="190.76" y="145.07" width="5.14" height="11.51" transform="translate(-24.54 38.33) rotate(-10.65)"/>
            <rect class="cls-5" x="193.63" y="160.32" width="5.14" height="11.51" transform="translate(-27.31 39.12) rotate(-10.65)"/>
            <rect class="cls-5" x="196.5" y="175.57" width="5.14" height="11.51" transform="translate(-30.08 39.92) rotate(-10.65)"/>
            <rect class="cls-2" x="116.68" y="224.46" width="73.81" height="2.82" transform="translate(-39.1 32.28) rotate(-10.65)"/>
          </g>
          <polygon class="cls-4" points="266.57 211.22 77.68 240.89 77.68 150.2 266.57 147.28 266.57 211.22"/>
          <g>
            <rect class="cls-6" x="72.81" y="150.2" width="188.89" height="93.61"/>
            <rect class="cls-7" x="77.85" y="150.2" width="7.38" height="93.61"/>
            <rect class="cls-1" x="90.88" y="156.92" width="107.81" height="72.97"/>
            <g>
              <path class="cls-2" d="M216.43,177.22c0-1.4.22-2.59.67-3.59.45-1,1.25-2.1,2.4-3.31,1.14-1.21,1.92-2.24,2.36-3.1.44-.86.66-1.75.66-2.68,0-.84-.14-1.42-.4-1.74-.27-.33-.67-.49-1.19-.49-1.06,0-1.59.64-1.59,1.93v2.09h-2.9v-1.9c0-1.58.39-2.8,1.17-3.64.78-.85,1.92-1.27,3.41-1.27s2.62.42,3.41,1.27c.78.85,1.17,2.06,1.17,3.64,0,1.19-.28,2.35-.85,3.49-.57,1.14-1.55,2.44-2.95,3.91-.91.97-1.53,1.75-1.84,2.36-.32.61-.47,1.25-.47,1.94v.42h5.83v2.79h-8.88v-2.12Z"/>
              <path class="cls-2" d="M228.63,178.34c-.8-.86-1.2-2.07-1.2-3.63v-10.27c0-1.56.4-2.77,1.2-3.63.8-.86,1.95-1.28,3.46-1.28s2.66.43,3.46,1.28c.8.86,1.2,2.07,1.2,3.63v10.27c0,1.56-.4,2.77-1.2,3.63s-1.95,1.28-3.46,1.28-2.66-.43-3.46-1.28ZM233.68,174.9v-10.66c0-1.28-.53-1.93-1.59-1.93s-1.59.64-1.59,1.93v10.66c0,1.28.53,1.93,1.59,1.93s1.59-.64,1.59-1.93Z"/>
              <path class="cls-2" d="M239.8,178.34c-.8-.86-1.2-2.07-1.2-3.63v-10.27c0-1.56.4-2.77,1.2-3.63.8-.86,1.95-1.28,3.46-1.28s2.66.43,3.46,1.28c.8.86,1.2,2.07,1.2,3.63v10.27c0,1.56-.4,2.77-1.2,3.63s-1.95,1.28-3.46,1.28-2.66-.43-3.46-1.28ZM244.85,174.9v-10.66c0-1.28-.53-1.93-1.59-1.93s-1.59.64-1.59,1.93v10.66c0,1.28.53,1.93,1.59,1.93s1.59-.64,1.59-1.93Z"/>
            </g>
            <rect class="cls-5" x="178.15" y="211.85" width="5.14" height="11.51"/>
            <rect class="cls-5" x="178.15" y="227.36" width="5.14" height="11.51"/>
            <rect class="cls-5" x="178.15" y="165.3" width="5.14" height="11.51"/>
            <rect class="cls-5" x="178.15" y="180.81" width="5.14" height="11.51"/>
            <rect class="cls-5" x="178.15" y="196.33" width="5.14" height="11.51"/>
            <rect class="cls-2" x="90.88" y="236.04" width="73.81" height="2.82"/>
          </g>
        </g>
      </g>
    </g>
  </g>
</svg>