<?xml version="1.0" encoding="UTF-8"?>
<svg xmlns="http://www.w3.org/2000/svg" viewBox="0 0 359.18 359.18">
  <defs>
    <style>
      .cls-1 {
        fill: #faf9f7;
      }

      .cls-1, .cls-2, .cls-3, .cls-4, .cls-5 {
        stroke-width: 0px;
      }

      .cls-2 {
        mix-blend-mode: multiply;
      }

      .cls-2, .cls-3 {
        fill: #2a4b9a;
      }

      .cls-6 {
        isolation: isolate;
      }

      .cls-4 {
        fill: #c7f9cc;
      }

      .cls-5 {
        fill: #57cc99;
      }
    </style>
  </defs>
  <g class="cls-6">
    <g id="Lag_1" data-name="Lag 1">
      <g>
        <circle class="cls-3" cx="179.59" cy="179.59" r="179.59" transform="translate(-30.62 322.13) rotate(-79.14)"/>
        <path class="cls-2" d="M97.13,268.88l89.5,90.14c87.03-3.34,158.18-68.57,170.64-152.95l-90.01-80.2-170.13,143.01Z"/>
        <g>
          <g>
            <path class="cls-1" d="M267.29,133.65v122.87c0,9.7-7.87,17.57-17.57,17.57H109.62c-9.7,0-17.57-7.87-17.57-17.57v-122.87l1.98-4.81h168.95l4.31,4.81Z"/>
            <path class="cls-4" d="M267.13,116.42v17.23H91.89v-17.23c0-9.7,7.87-17.57,17.57-17.57h140.1c9.7,0,17.57,7.87,17.57,17.57Z"/>
            <rect class="cls-5" x="107.11" y="108.55" width="18.75" height="11.09" rx="2.72" ry="2.72"/>
            <rect class="cls-5" x="112.43" y="85.09" width="8.64" height="30.7" rx="4.21" ry="4.21"/>
            <rect class="cls-5" x="138.62" y="108.55" width="18.75" height="11.09" rx="2.72" ry="2.72"/>
            <rect class="cls-5" x="143.94" y="85.09" width="8.64" height="30.7" rx="4.21" ry="4.21"/>
            <rect class="cls-5" x="170.13" y="108.55" width="18.75" height="11.09" rx="2.72" ry="2.72"/>
            <rect class="cls-5" x="175.45" y="85.09" width="8.64" height="30.7" rx="4.21" ry="4.21"/>
            <rect class="cls-5" x="201.65" y="108.55" width="18.75" height="11.09" rx="2.72" ry="2.72"/>
            <rect class="cls-5" x="206.97" y="85.09" width="8.64" height="30.7" rx="4.21" ry="4.21"/>
            <rect class="cls-5" x="233.16" y="108.55" width="18.75" height="11.09" rx="2.72" ry="2.72"/>
            <rect class="cls-5" x="238.48" y="85.09" width="8.64" height="30.7" rx="4.21" ry="4.21"/>
          </g>
          <g>
            <path class="cls-3" d="M151.84,227.73c-4.38,0-8.23-.74-11.53-2.21-3.3-1.47-5.99-3.47-8.06-5.99-2.07-2.52-3.47-5.28-4.19-8.29l8.11-7.21c.6,2.82,1.52,5.3,2.75,7.43,1.23,2.13,2.93,3.77,5.09,4.91,2.16,1.14,4.92,1.71,8.29,1.71s6.17-.77,8.06-2.3c1.89-1.53,2.84-3.62,2.84-6.26,0-2.1-.53-3.78-1.58-5.04-1.05-1.26-2.51-2.18-4.37-2.75-1.86-.57-4.02-.85-6.49-.85h-9.55v-8.47h9.91c3.24,0,5.73-.66,7.48-1.98,1.74-1.32,2.61-3.36,2.61-6.12,0-2.52-.81-4.65-2.43-6.4-1.62-1.74-4.11-2.61-7.48-2.61-3.66,0-6.77,1.02-9.32,3.06-2.55,2.04-4.13,5.02-4.73,8.92l-8.11-6.94c.9-2.76,2.37-5.25,4.41-7.48,2.04-2.22,4.59-3.99,7.66-5.32,3.06-1.32,6.55-1.98,10.45-1.98,4.68,0,8.5.81,11.44,2.43,2.94,1.62,5.1,3.69,6.49,6.22,1.38,2.52,2.07,5.13,2.07,7.84,0,2.46-.59,4.68-1.76,6.67s-2.79,3.6-4.86,4.86c-2.07,1.26-4.43,2.01-7.07,2.25,3.78.24,6.86,1.07,9.23,2.48,2.37,1.41,4.11,3.24,5.22,5.5,1.11,2.25,1.67,4.76,1.67,7.52,0,3.36-.93,6.26-2.79,8.69-1.86,2.43-4.46,4.32-7.79,5.68-3.33,1.35-7.22,2.03-11.67,2.03Z"/>
            <path class="cls-3" d="M206.79,227.64c-5.65,0-10.35-1.35-14.1-4.05-3.75-2.7-6.58-6.41-8.47-11.13-1.89-4.71-2.84-10.01-2.84-15.9s.95-11.15,2.84-15.81c1.89-4.65,4.71-8.35,8.47-11.08,3.75-2.73,8.45-4.1,14.1-4.1s10.25,1.37,14.01,4.1c3.75,2.73,6.58,6.43,8.47,11.08,1.89,4.65,2.84,9.92,2.84,15.81s-.95,11.19-2.84,15.9c-1.89,4.72-4.72,8.42-8.47,11.13-3.75,2.7-8.42,4.05-14.01,4.05ZM206.79,217.91c3.6,0,6.47-.89,8.6-2.66,2.13-1.77,3.68-4.28,4.64-7.52.96-3.24,1.44-6.97,1.44-11.17s-.48-7.9-1.44-11.08c-.96-3.18-2.51-5.68-4.64-7.48-2.13-1.8-5-2.7-8.6-2.7s-6.47.9-8.6,2.7c-2.13,1.8-3.68,4.29-4.64,7.48-.96,3.18-1.44,6.88-1.44,11.08s.48,7.93,1.44,11.17c.96,3.24,2.51,5.75,4.64,7.52,2.13,1.77,5,2.66,8.6,2.66Z"/>
          </g>
        </g>
      </g>
    </g>
  </g>
</svg>