<?xml version="1.0" encoding="UTF-8"?>
<svg id="Lag_1" data-name="Lag 1" xmlns="http://www.w3.org/2000/svg" viewBox="0 0 587.96 674.5">
  <defs>
    <style>
      .cls-1 {
        fill: #101720;
        stroke-width: 0px;
      }
    </style>
  </defs>
  <path class="cls-1" d="M472.88,113.4c-22.98-22.39-38.3-52.36-44.03-85.28-.76-4.38-1.35-8.84-1.77-13.22V0h-116.18v461.09c-.17,53.71-43.86,97.24-97.66,97.24-15.83,0-30.73-3.79-43.95-10.44-32.96-16.57-53.74-50.33-53.71-87.22,0-53.88,43.69-97.66,97.66-97.66,10.35,0,20.29,1.6,29.63,4.55v-118.03c-9.68-1.35-19.53-2.02-29.3-2.02C95.55,247.76,0,343.31,0,461.09c0,73.92,37.55,138.99,94.63,177.3,35.14,23.62,76.53,36.2,118.87,36.12,117.95,0,213.5-95.55,213.5-213.41v-235.64c46.95,33.58,103.24,51.6,160.96,51.52v-115.42c-17.76,0-35.36-2.86-52.03-8.5-11.7-3.96-33.84-11.03-63.14-39.65h.08Z"/>
</svg>