<?xml version="1.0" encoding="UTF-8"?>
<svg id="Lag_1" data-name="Lag 1" xmlns="http://www.w3.org/2000/svg" viewBox="0 0 242.59 242.59">
  <defs>
    <style>
      .cls-1 {
        fill: #faf9f7;
      }

      .cls-1, .cls-2 {
        stroke-width: 0px;
      }

      .cls-2 {
        fill: #2a4b9a;
      }
    </style>
  </defs>
  <rect class="cls-2" x="0" width="242.59" height="242.59" rx="8.53" ry="8.53"/>
  <path class="cls-1" d="M197.51,186.41c-11.28-19.5-28.66-33.48-48.94-40.11,25.3-15.06,33.6-47.79,18.54-73.09-15.06-25.3-47.79-33.6-73.09-18.54-25.3,15.06-33.6,47.79-18.54,73.09,4.54,7.63,10.91,14,18.54,18.54-20.28,6.62-37.66,20.6-48.94,40.11-1.71,2.79-.84,6.44,1.95,8.15,2.79,1.71,6.44.84,8.15-1.95.05-.09.11-.18.16-.27,13.95-24.11,38.61-38.51,65.96-38.51s52.01,14.4,65.96,38.51c1.56,2.88,5.16,3.94,8.03,2.38s3.94-5.16,2.38-8.03c-.05-.09-.1-.18-.16-.27ZM79.82,100.51c0-22.9,18.57-41.47,41.47-41.47s41.47,18.57,41.47,41.47-18.57,41.47-41.47,41.47c-22.89-.02-41.45-18.58-41.47-41.47Z"/>
</svg>