<?xml version="1.0" encoding="UTF-8"?>
<svg id="Lag_1" data-name="Lag 1" xmlns="http://www.w3.org/2000/svg" viewBox="0 0 375 158.98">
  <defs>
    <style>
      .cls-1 {
        fill: #2a4b9b;
      }

      .cls-1, .cls-2 {
        stroke-width: 0px;
      }

      .cls-2 {
        fill: #fbfaf7;
      }
    </style>
  </defs>
  <polyline class="cls-1" points="315.24 158.98 0 158.98 0 0 375 0 375 158.98 353.67 158.98 315.24 158.98"/>
  <path class="cls-2" d="M337.02,125.66h0c-4.2,0-7.6-3.4-7.6-7.6h0c0-4.2,3.4-7.6,7.6-7.6h0c4.2,0,7.6,3.4,7.6,7.6h0c0,4.2-3.4,7.6-7.6,7.6Z"/>
  <path class="cls-2" d="M62.81,127.13c-6.54,0-12.26-1.45-17.14-4.34-4.89-2.89-8.66-7.04-11.31-12.45-2.66-5.41-3.98-11.76-3.98-19.06s1.33-13.63,3.98-18.99c2.65-5.36,6.42-9.48,11.31-12.38,4.88-2.89,10.6-4.34,17.14-4.34,9.01,0,16.17,2.3,21.48,6.9,5.31,4.6,8.77,10.31,10.38,17.14l-12.23,4.98c-.57-5.5-2.4-10-5.48-13.51-3.08-3.51-7.71-5.26-13.87-5.26-4.08,0-7.64,1-10.67,2.99-3.04,1.99-5.36,4.91-6.97,8.75-1.61,3.84-2.42,8.42-2.42,13.73s.8,10.01,2.42,13.8c1.61,3.8,3.93,6.71,6.97,8.75,3.03,2.04,6.59,3.06,10.67,3.06,6.16,0,10.79-1.78,13.87-5.33,3.08-3.56,4.91-8.08,5.48-13.59l12.23,5.12c-1.61,6.83-5.07,12.54-10.38,17.14-5.31,4.6-12.47,6.9-21.48,6.9Z"/>
  <path class="cls-2" d="M171.93,59.7l-63.45,68.85-6.69-5.55,63.45-69,6.69,5.69ZM135.79,127.13c-6.45,0-12.12-1.47-17-4.41-4.89-2.94-8.73-7.09-11.52-12.45-2.8-5.36-4.2-11.69-4.2-18.99s1.4-13.61,4.2-18.92c2.8-5.31,6.64-9.44,11.52-12.38,4.88-2.94,10.55-4.41,17-4.41s11.95,1.47,16.79,4.41c4.84,2.94,8.63,7.07,11.38,12.38,2.75,5.31,4.13,11.62,4.13,18.92s-1.38,13.64-4.13,18.99c-2.75,5.36-6.54,9.51-11.38,12.45-4.84,2.94-10.43,4.41-16.79,4.41ZM135.65,116.75c3.98,0,7.47-.92,10.46-2.77,2.99-1.85,5.34-4.65,7.04-8.39,1.71-3.75,2.56-8.51,2.56-14.3s-.85-10.55-2.56-14.3c-1.71-3.75-4.05-6.54-7.04-8.39-2.99-1.85-6.47-2.77-10.46-2.77s-7.21.92-10.24,2.77c-3.04,1.85-5.38,4.65-7.04,8.39-1.66,3.75-2.49,8.51-2.49,14.3s.83,10.55,2.49,14.3c1.66,3.75,4.01,6.54,7.04,8.39,3.03,1.85,6.45,2.77,10.24,2.77Z"/>
  <path class="cls-2" d="M196.4,125.71h-12.38V30.4h12.38v95.32Z"/>
  <path class="cls-2" d="M227.41,125.71h-12.38V57h12.38v68.71ZM270.09,125.71h-12.38v-44.53c0-5.21-1.23-9.06-3.7-11.52-2.47-2.47-6.26-3.7-11.38-3.7-3.41,0-6.26.92-8.54,2.77-2.28,1.85-3.96,4.34-5.05,7.47-1.09,3.13-1.64,6.59-1.64,10.39l-1-5.69c.38-4.27,1.49-8.34,3.34-12.23,1.85-3.89,4.41-7.04,7.68-9.46,3.27-2.42,7.33-3.63,12.16-3.63,6.73,0,11.83,1.95,15.29,5.83,3.46,3.89,5.19,9.48,5.19,16.79v47.52ZM312.77,125.71h-12.23v-44.53c0-5.21-1.23-9.06-3.7-11.52-2.47-2.47-6.26-3.7-11.38-3.7-3.51,0-6.4.92-8.68,2.77-2.28,1.85-3.96,4.34-5.05,7.47-1.09,3.13-1.64,6.59-1.64,10.39l-1-5.69c.47-4.27,1.61-8.34,3.41-12.23,1.8-3.89,4.34-7.04,7.61-9.46,3.27-2.42,7.33-3.63,12.16-3.63,6.73,0,11.83,1.95,15.29,5.83,3.46,3.89,5.19,9.48,5.19,16.79v47.52Z"/>
</svg>