<?xml version="1.0" encoding="UTF-8"?>
<svg id="Lag_1" data-name="Lag 1" xmlns="http://www.w3.org/2000/svg" viewBox="0 0 393.23 166.71">
  <defs>
    <style>
      .cls-1 {
        fill: #2a4b9b;
      }

      .cls-1, .cls-2 {
        stroke-width: 0px;
      }

      .cls-2 {
        fill: #fbfaf7;
      }
    </style>
  </defs>
  <polyline class="cls-2" points="330.56 166.71 0 166.71 0 0 393.23 0 393.23 166.71 370.86 166.71 330.56 166.71"/>
  <path class="cls-1" d="M353.4,131.77h0c-4.4,0-7.97-3.57-7.97-7.97h0c0-4.4,3.57-7.97,7.97-7.97h0c4.4,0,7.97,3.57,7.97,7.97h0c0,4.4-3.57,7.97-7.97,7.97Z"/>
  <path class="cls-1" d="M65.87,133.31c-6.86,0-12.85-1.52-17.98-4.55-5.12-3.03-9.08-7.38-11.86-13.05-2.79-5.67-4.18-12.33-4.18-19.99s1.39-14.3,4.18-19.92c2.78-5.62,6.74-9.94,11.86-12.98,5.12-3.03,11.11-4.55,17.98-4.55,9.45,0,16.96,2.41,22.53,7.23,5.57,4.83,9.2,10.82,10.89,17.98l-12.83,5.22c-.6-5.77-2.51-10.49-5.74-14.17-3.23-3.68-8.08-5.52-14.54-5.52-4.28,0-8.01,1.04-11.19,3.13-3.18,2.09-5.62,5.15-7.31,9.17-1.69,4.03-2.54,8.83-2.54,14.4s.84,10.49,2.54,14.47c1.69,3.98,4.13,7.04,7.31,9.17,3.18,2.14,6.91,3.21,11.19,3.21,6.46,0,11.31-1.86,14.54-5.59,3.23-3.73,5.15-8.48,5.74-14.25l12.83,5.37c-1.69,7.16-5.32,13.15-10.89,17.98-5.57,4.83-13.08,7.24-22.53,7.24Z"/>
  <path class="cls-1" d="M180.28,62.6l-66.53,72.2-7.01-5.82,66.53-72.35,7.01,5.97ZM142.39,133.31c-6.76,0-12.71-1.54-17.83-4.62-5.12-3.08-9.15-7.43-12.08-13.05-2.93-5.62-4.4-12.26-4.4-19.92s1.47-14.27,4.4-19.84c2.93-5.57,6.96-9.89,12.08-12.98,5.12-3.08,11.06-4.62,17.83-4.62s12.53,1.54,17.6,4.62c5.07,3.08,9.05,7.41,11.93,12.98,2.88,5.57,4.33,12.18,4.33,19.84s-1.44,14.3-4.33,19.92c-2.88,5.62-6.86,9.97-11.93,13.05-5.07,3.08-10.94,4.62-17.6,4.62ZM142.24,122.42c4.18,0,7.83-.97,10.96-2.91,3.13-1.94,5.59-4.87,7.38-8.8,1.79-3.93,2.69-8.92,2.69-14.99s-.9-11.06-2.69-14.99c-1.79-3.93-4.25-6.86-7.38-8.8-3.13-1.94-6.79-2.91-10.96-2.91s-7.56.97-10.74,2.91c-3.18,1.94-5.65,4.87-7.38,8.8-1.74,3.93-2.61,8.93-2.61,14.99s.87,11.06,2.61,14.99c1.74,3.93,4.2,6.86,7.38,8.8,3.18,1.94,6.76,2.91,10.74,2.91Z"/>
  <path class="cls-1" d="M205.94,131.82h-12.98V31.87h12.98v99.95Z"/>
  <path class="cls-1" d="M238.46,131.82h-12.98V59.77h12.98v72.05ZM283.21,131.82h-12.98v-46.69c0-5.47-1.29-9.5-3.88-12.08-2.59-2.58-6.56-3.88-11.93-3.88-3.58,0-6.56.97-8.95,2.91-2.39,1.94-4.15,4.55-5.29,7.83-1.14,3.28-1.72,6.91-1.72,10.89l-1.04-5.97c.4-4.48,1.57-8.75,3.5-12.83,1.94-4.08,4.62-7.38,8.06-9.92,3.43-2.54,7.68-3.8,12.75-3.8,7.06,0,12.41,2.04,16.04,6.12,3.63,4.08,5.45,9.95,5.45,17.6v49.83ZM327.97,131.82h-12.83v-46.69c0-5.47-1.29-9.5-3.88-12.08-2.59-2.58-6.56-3.88-11.93-3.88-3.68,0-6.71.97-9.1,2.91-2.39,1.94-4.15,4.55-5.29,7.83-1.14,3.28-1.72,6.91-1.72,10.89l-1.04-5.97c.5-4.48,1.69-8.75,3.58-12.83,1.89-4.08,4.55-7.38,7.98-9.92,3.43-2.54,7.68-3.8,12.75-3.8,7.06,0,12.41,2.04,16.04,6.12,3.63,4.08,5.45,9.95,5.45,17.6v49.83Z"/>
</svg>