<?xml version="1.0" encoding="UTF-8"?>
<svg id="Lag_1" data-name="Lag 1" xmlns="http://www.w3.org/2000/svg" viewBox="0 0 133.35 133.35">
  <defs>
    <style>
      .cls-1 {
        fill: #2a4b9b;
      }

      .cls-1, .cls-2 {
        stroke-width: 0px;
      }

      .cls-2 {
        fill: #fbfaf7;
      }
    </style>
  </defs>
  <rect class="cls-1" width="133.35" height="133.35" rx="1.25" ry="1.25"/>
  <g>
    <path class="cls-2" d="M102.14,102.57h0c-4.28,0-7.75-3.41-7.75-7.62h0c0-4.21,3.47-7.62,7.75-7.62h0c4.28,0,7.75,3.41,7.75,7.62h0c0,4.21-3.47,7.62-7.75,7.62Z"/>
    <path class="cls-2" d="M56.53,102.57c-6.67,0-12.5-1.45-17.48-4.35-4.98-2.9-8.83-7.06-11.53-12.49-2.71-5.42-4.06-11.8-4.06-19.12s1.35-13.68,4.06-19.05c2.71-5.37,6.55-9.51,11.53-12.42,4.98-2.9,10.81-4.35,17.48-4.35,9.19,0,16.49,2.31,21.91,6.92,5.41,4.62,8.94,10.35,10.59,17.2l-12.48,4.99c-.58-5.52-2.44-10.04-5.58-13.56-3.14-3.52-7.86-5.28-14.14-5.28-4.16,0-7.79,1-10.88,3-3.1,2-5.47,4.92-7.11,8.78-1.65,3.85-2.47,8.45-2.47,13.77s.82,10.04,2.47,13.84c1.64,3.81,4.01,6.73,7.11,8.78,3.09,2.05,6.72,3.07,10.88,3.07,6.29,0,11-1.78,14.14-5.35,3.14-3.57,5-8.11,5.58-13.63l12.48,5.14c-1.65,6.85-5.17,12.58-10.59,17.2-5.42,4.62-12.72,6.92-21.91,6.92Z"/>
  </g>
</svg>