<?xml version="1.0" encoding="UTF-8"?>
<svg id="Lag_1" data-name="Lag 1" xmlns="http://www.w3.org/2000/svg" viewBox="0 0 320.43 98.48">
  <defs>
    <style>
      .cls-1 {
        fill: #faf9f7;
        stroke-width: 0px;
      }
    </style>
  </defs>
  <path class="cls-1" d="M312.68,95.57h0c-4.28,0-7.75-3.41-7.75-7.62h0c0-4.21,3.47-7.62,7.75-7.62h0c4.28,0,7.75,3.41,7.75,7.62h0c0,4.21-3.47,7.62-7.75,7.62Z"/>
  <path class="cls-1" d="M33.07,97.05c-6.67,0-12.5-1.45-17.48-4.35-4.98-2.9-8.83-7.06-11.53-12.49-2.71-5.42-4.06-11.8-4.06-19.12s1.35-13.68,4.06-19.05c2.71-5.37,6.55-9.51,11.53-12.42,4.98-2.9,10.81-4.35,17.48-4.35,9.19,0,16.49,2.31,21.91,6.92,5.41,4.62,8.94,10.35,10.59,17.2l-12.48,4.99c-.58-5.52-2.44-10.04-5.58-13.56-3.14-3.52-7.86-5.28-14.14-5.28-4.16,0-7.79,1-10.88,3-3.1,2-5.47,4.92-7.11,8.78-1.65,3.85-2.47,8.45-2.47,13.77s.82,10.04,2.47,13.84c1.64,3.81,4.01,6.73,7.11,8.78,3.09,2.05,6.72,3.07,10.88,3.07,6.29,0,11-1.78,14.14-5.35,3.14-3.57,5-8.11,5.58-13.63l12.48,5.14c-1.65,6.85-5.17,12.58-10.59,17.2-5.42,4.62-12.72,6.92-21.91,6.92Z"/>
  <path class="cls-1" d="M144.34,29.4l-64.7,69.08-6.82-5.57L137.52,23.69l6.82,5.71ZM107.49,97.05c-6.58,0-12.36-1.47-17.34-4.43-4.98-2.95-8.9-7.11-11.75-12.49-2.85-5.37-4.28-11.73-4.28-19.05s1.43-13.65,4.28-18.98c2.85-5.33,6.77-9.47,11.75-12.42,4.98-2.95,10.76-4.42,17.34-4.42s12.18,1.48,17.12,4.42c4.93,2.95,8.8,7.09,11.6,12.42,2.8,5.33,4.21,11.66,4.21,18.98s-1.4,13.68-4.21,19.05c-2.81,5.38-6.67,9.54-11.6,12.49-4.93,2.95-10.64,4.43-17.12,4.43ZM107.34,86.63c4.06,0,7.62-.93,10.66-2.78,3.05-1.86,5.44-4.66,7.18-8.42,1.74-3.76,2.61-8.54,2.61-14.34s-.87-10.58-2.61-14.34c-1.74-3.76-4.13-6.57-7.18-8.42-3.05-1.86-6.6-2.78-10.66-2.78s-7.35.93-10.44,2.78c-3.1,1.86-5.49,4.66-7.18,8.42-1.69,3.76-2.54,8.54-2.54,14.34s.85,10.59,2.54,14.34c1.69,3.76,4.08,6.57,7.18,8.42,3.09,1.85,6.58,2.78,10.44,2.78Z"/>
  <path class="cls-1" d="M169.29,95.63h-12.62V0h12.62v95.63Z"/>
  <path class="cls-1" d="M200.91,95.63h-12.62V26.69h12.62v68.94ZM244.43,95.63h-12.62v-44.67c0-5.23-1.26-9.09-3.77-11.56-2.52-2.47-6.38-3.71-11.6-3.71-3.48,0-6.38.93-8.7,2.78-2.32,1.86-4.04,4.35-5.15,7.49-1.11,3.14-1.67,6.61-1.67,10.42l-1.02-5.71c.38-4.28,1.52-8.37,3.41-12.27,1.89-3.9,4.5-7.06,7.83-9.49,3.34-2.43,7.47-3.64,12.4-3.64,6.87,0,12.06,1.95,15.59,5.85,3.53,3.9,5.3,9.52,5.3,16.84v47.67ZM287.94,95.63h-12.48v-44.67c0-5.23-1.26-9.09-3.77-11.56-2.52-2.47-6.38-3.71-11.6-3.71-3.58,0-6.53.93-8.85,2.78-2.32,1.86-4.04,4.35-5.15,7.49-1.11,3.14-1.67,6.61-1.67,10.42l-1.02-5.71c.48-4.28,1.64-8.37,3.48-12.27,1.84-3.9,4.42-7.06,7.76-9.49,3.34-2.43,7.47-3.64,12.4-3.64,6.87,0,12.06,1.95,15.59,5.85,3.53,3.9,5.3,9.52,5.3,16.84v47.67Z"/>
</svg>